<svg width="30" height="30" viewBox="0 0 30 30" fill="none" xmlns="http://www.w3.org/2000/svg">
<path id="Vector" fill-rule="evenodd" clip-rule="evenodd" d="M15.0001 0C6.7169 0 0 6.88537 0 15.3796C0 22.1749 4.29799 27.9399 10.258 29.9736C11.0076 30.116 11.2829 29.64 11.2829 29.2337C11.2829 28.867 11.269 27.6554 11.2625 26.3703C7.08946 27.3007 6.20889 24.5556 6.20889 24.5556C5.52656 22.778 4.54341 22.3053 4.54341 22.3053C3.18244 21.3507 4.646 21.3703 4.646 21.3703C6.15227 21.4786 6.94538 22.9552 6.94538 22.9552C8.28325 25.3065 10.4545 24.6267 11.3104 24.2337C11.4451 23.24 11.8338 22.561 12.2628 22.1772C8.93108 21.7883 5.42869 20.4695 5.42869 14.5763C5.42869 12.8972 6.01465 11.5252 6.97419 10.4482C6.81846 10.0605 6.30501 8.49653 7.11952 6.37805C7.11952 6.37805 8.37911 5.96471 11.2456 7.95455C12.4422 7.61381 13.7254 7.44288 15.0001 7.43707C16.2749 7.44288 17.5591 7.61381 18.7578 7.95455C21.6209 5.96471 22.8788 6.37805 22.8788 6.37805C23.6952 8.49653 23.1815 10.0605 23.0258 10.4482C23.9876 11.5252 24.5696 12.8972 24.5696 14.5763C24.5696 20.4835 21.0605 21.7842 17.7203 22.1649C18.2584 22.6422 18.7377 23.5782 18.7377 25.0131C18.7377 27.0707 18.7203 28.7269 18.7203 29.2337C18.7203 29.643 18.9903 30.1225 19.7507 29.9715C25.7075 27.9356 30 22.1726 30 15.3796C30 6.88537 23.2841 0 15.0001 0Z" fill="white"/>
</svg>
