<svg width="414" height="2126" viewBox="0 0 414 2126" fill="none" xmlns="http://www.w3.org/2000/svg">
<g clip-path="url(#clip0_61_23)">
<g clip-path="url(#clip1_61_23)">
<path d="M365.448 73.9569C367.751 82.5744 365.123 92.1412 358.256 102.105C351.39 112.067 340.324 122.366 325.886 132.402C297.013 152.469 254.745 171.415 205.926 184.463C157.107 197.511 111.023 202.18 75.9885 199.193C58.4688 197.7 43.7402 194.294 32.8198 189.086C21.8971 183.877 14.846 176.898 12.5427 168.28C10.2395 159.663 12.8681 150.096 19.7355 140.132C26.6014 130.17 37.6669 119.871 52.1053 109.836C80.9784 89.7681 123.246 70.8219 172.065 57.7738C220.884 44.7257 266.968 40.0575 302.003 43.0441C319.522 44.5375 334.251 47.9429 345.171 53.1508C356.094 58.3598 363.145 65.3395 365.448 73.9569Z" stroke="url(#paint0_linear_61_23)"/>
<path d="M330 120.496C328.039 120.692 326.912 120.872 326.22 121.468C325.407 122.166 325.214 123.444 325 126C324.779 123.35 324.579 122.08 323.688 121.398C322.996 120.865 321.876 120.692 320 120.504C321.954 120.308 323.088 120.128 323.773 119.54C324.593 118.834 324.786 117.564 325 115C325.2 117.36 325.378 118.622 326.041 119.351C326.705 120.081 327.86 120.284 330 120.496Z" fill="white" fill-opacity="0.9"/>
<path d="M330 120.496C328.039 120.692 326.912 120.872 326.22 121.468C325.407 122.166 325.214 123.444 325 126C324.779 123.35 324.579 122.08 323.688 121.398C322.996 120.865 321.876 120.692 320 120.504C321.954 120.308 323.088 120.128 323.773 119.54C324.593 118.834 324.786 117.564 325 115C325.2 117.36 325.378 118.622 326.041 119.351C326.705 120.081 327.86 120.284 330 120.496Z" fill="white" fill-opacity="0.9"/>
<path d="M408 92.4961C406.039 92.6921 404.912 92.8724 404.22 93.4683C403.407 94.1661 403.214 95.444 403 98C402.779 95.35 402.579 94.0798 401.688 93.3977C400.996 92.8646 399.876 92.6921 398 92.5039C399.954 92.3079 401.088 92.1276 401.773 91.5396C402.593 90.8339 402.786 89.5638 403 87C403.2 89.3599 403.378 90.6222 404.041 91.3514C404.705 92.0805 405.86 92.2844 408 92.4961Z" fill="white" fill-opacity="0.9"/>
<path d="M408 92.4961C406.039 92.6921 404.912 92.8724 404.22 93.4683C403.407 94.1661 403.214 95.444 403 98C402.779 95.35 402.579 94.0798 401.688 93.3977C400.996 92.8646 399.876 92.6921 398 92.5039C399.954 92.3079 401.088 92.1276 401.773 91.5396C402.593 90.8339 402.786 89.5638 403 87C403.2 89.3599 403.378 90.6222 404.041 91.3514C404.705 92.0805 405.86 92.2844 408 92.4961Z" fill="white" fill-opacity="0.9"/>
<path d="M43 156.498C41.627 156.622 40.8381 156.737 40.3538 157.116C39.7846 157.56 39.6498 158.373 39.5 160C39.3452 158.314 39.2054 157.505 38.5813 157.071C38.097 156.732 37.3131 156.622 36 156.502C37.368 156.378 38.1619 156.263 38.6412 155.889C39.2154 155.44 39.3502 154.632 39.5 153C39.6398 154.502 39.7646 155.305 40.229 155.769C40.6933 156.233 41.5021 156.363 43 156.498Z" fill="white" fill-opacity="0.6"/>
<path d="M43 156.498C41.627 156.622 40.8381 156.737 40.3538 157.116C39.7846 157.56 39.6498 158.373 39.5 160C39.3452 158.314 39.2054 157.505 38.5813 157.071C38.097 156.732 37.3131 156.622 36 156.502C37.368 156.378 38.1619 156.263 38.6412 155.889C39.2154 155.44 39.3502 154.632 39.5 153C39.6398 154.502 39.7646 155.305 40.229 155.769C40.6933 156.233 41.5021 156.363 43 156.498Z" fill="white" fill-opacity="0.6"/>
<path d="M16 184.498C15.0193 184.587 14.4558 184.669 14.1098 184.94C13.7033 185.257 13.607 185.838 13.5 187C13.3894 185.795 13.2896 185.218 12.8438 184.908C12.4979 184.666 11.9379 184.587 11 184.502C11.9772 184.413 12.5442 184.331 12.8866 184.063C13.2967 183.743 13.393 183.165 13.5 182C13.5999 183.073 13.689 183.646 14.0207 183.978C14.3524 184.309 14.9301 184.402 16 184.498Z" fill="white" fill-opacity="0.4"/>
<path d="M16 184.498C15.0193 184.587 14.4558 184.669 14.1098 184.94C13.7033 185.257 13.607 185.838 13.5 187C13.3894 185.795 13.2896 185.218 12.8438 184.908C12.4979 184.666 11.9379 184.587 11 184.502C11.9772 184.413 12.5442 184.331 12.8866 184.063C13.2967 183.743 13.393 183.165 13.5 182C13.5999 183.073 13.689 183.646 14.0207 183.978C14.3524 184.309 14.9301 184.402 16 184.498Z" fill="white" fill-opacity="0.4"/>
<path d="M316 522.995C313.646 523.244 312.294 523.474 311.464 524.232C310.488 525.12 310.257 526.747 310 530C309.735 526.627 309.495 525.011 308.425 524.143C307.595 523.464 306.251 523.244 304 523.005C306.345 522.756 307.706 522.526 308.528 521.778C309.512 520.88 309.743 519.263 310 516C310.24 519.004 310.454 520.61 311.25 521.538C312.046 522.466 313.432 522.726 316 522.995Z" fill="white"/>
</g>
<path d="M329 34.9981C327.823 35.105 327.147 35.2034 326.732 35.5284C326.244 35.909 326.128 36.6061 326 38.0002C325.867 36.5548 325.748 35.862 325.213 35.4899C324.797 35.1991 324.126 35.105 323 35.0024C324.173 34.8955 324.853 34.7971 325.264 34.4764C325.756 34.0915 325.872 33.3987 326 32.0002C326.12 33.2875 326.227 33.976 326.625 34.3737C327.023 34.7714 327.716 34.8826 329 34.9981Z" fill="white" fill-opacity="0.7"/>
<path d="M329 34.9981C327.823 35.105 327.147 35.2034 326.732 35.5284C326.244 35.909 326.128 36.6061 326 38.0002C325.867 36.5548 325.748 35.862 325.213 35.4899C324.797 35.1991 324.126 35.105 323 35.0024C324.173 34.8955 324.853 34.7971 325.264 34.4764C325.756 34.0915 325.872 33.3987 326 32.0002C326.12 33.2875 326.227 33.976 326.625 34.3737C327.023 34.7714 327.716 34.8826 329 34.9981Z" fill="white" fill-opacity="0.7"/>
<path d="M50 48.9988C49.2154 49.0701 48.7646 49.1357 48.4879 49.3523C48.1626 49.6061 48.0856 50.0708 48 51.0002C47.9116 50.0366 47.8317 49.5747 47.475 49.3267C47.1983 49.1328 46.7504 49.0701 46 49.0017C46.7817 48.9304 47.2354 48.8648 47.5093 48.651C47.8374 48.3944 47.9144 47.9325 48 47.0002C48.0799 47.8584 48.1512 48.3174 48.4165 48.5826C48.6819 48.8477 49.1441 48.9218 50 48.9988Z" fill="white" fill-opacity="0.7"/>
<path d="M50 48.9988C49.2154 49.0701 48.7646 49.1357 48.4879 49.3523C48.1626 49.6061 48.0856 50.0708 48 51.0002C47.9116 50.0366 47.8317 49.5747 47.475 49.3267C47.1983 49.1328 46.7504 49.0701 46 49.0017C46.7817 48.9304 47.2354 48.8648 47.5093 48.651C47.8374 48.3944 47.9144 47.9325 48 47.0002C48.0799 47.8584 48.1512 48.3174 48.4165 48.5826C48.6819 48.8477 49.1441 48.9218 50 48.9988Z" fill="white" fill-opacity="0.7"/>
<path d="M78 161.269C77.2154 161.331 76.7646 161.388 76.4879 161.576C76.1626 161.796 76.0856 162.199 76 163.005C75.9116 162.169 75.8317 161.769 75.475 161.554C75.1983 161.386 74.7504 161.331 74 161.272C74.7817 161.21 75.2354 161.153 75.5093 160.968C75.8374 160.745 75.9144 160.345 76 159.537C76.0799 160.281 76.1512 160.679 76.4165 160.909C76.6819 161.138 77.1441 161.203 78 161.269Z" fill="white" fill-opacity="0.7"/>
<path d="M78 161.269C77.2154 161.331 76.7646 161.388 76.4879 161.576C76.1626 161.796 76.0856 162.199 76 163.005C75.9116 162.169 75.8317 161.769 75.475 161.554C75.1983 161.386 74.7504 161.331 74 161.272C74.7817 161.21 75.2354 161.153 75.5093 160.968C75.8374 160.745 75.9144 160.345 76 159.537C76.0799 160.281 76.1512 160.679 76.4165 160.909C76.6819 161.138 77.1441 161.203 78 161.269Z" fill="white" fill-opacity="0.7"/>
<path d="M293 192.498C292.019 192.588 291.456 192.67 291.11 192.94C290.703 193.258 290.607 193.838 290.5 195C290.389 193.796 290.29 193.218 289.844 192.908C289.498 192.666 288.938 192.588 288 192.502C288.977 192.413 289.544 192.331 289.887 192.064C290.297 191.743 290.393 191.166 290.5 190C290.6 191.073 290.689 191.647 291.021 191.978C291.352 192.31 291.93 192.402 293 192.498Z" fill="white" fill-opacity="0.7"/>
<path d="M293 192.498C292.019 192.588 291.456 192.67 291.11 192.94C290.703 193.258 290.607 193.838 290.5 195C290.389 193.796 290.29 193.218 289.844 192.908C289.498 192.666 288.938 192.588 288 192.502C288.977 192.413 289.544 192.331 289.887 192.064C290.297 191.743 290.393 191.166 290.5 190C290.6 191.073 290.689 191.647 291.021 191.978C291.352 192.31 291.93 192.402 293 192.498Z" fill="white" fill-opacity="0.7"/>
<path d="M389 20.9988C388.412 21.0701 388.073 21.1357 387.866 21.3523C387.622 21.6061 387.564 22.0708 387.5 23.0002C387.434 22.0366 387.374 21.5747 387.106 21.3267C386.899 21.1328 386.563 21.0701 386 21.0017C386.586 20.9304 386.927 20.8648 387.132 20.651C387.378 20.3944 387.436 19.9325 387.5 19.0002C387.56 19.8584 387.613 20.3174 387.812 20.5826C388.011 20.8477 388.358 20.9218 389 20.9988Z" fill="white" fill-opacity="0.6"/>
<path d="M389 20.9988C388.412 21.0701 388.073 21.1357 387.866 21.3523C387.622 21.6061 387.564 22.0708 387.5 23.0002C387.434 22.0366 387.374 21.5747 387.106 21.3267C386.899 21.1328 386.563 21.0701 386 21.0017C386.586 20.9304 386.927 20.8648 387.132 20.651C387.378 20.3944 387.436 19.9325 387.5 19.0002C387.56 19.8584 387.613 20.3174 387.812 20.5826C388.011 20.8477 388.358 20.9218 389 20.9988Z" fill="white" fill-opacity="0.6"/>
<path d="M110 34.6801C108.235 34.7728 107.22 34.8581 106.598 35.1399C105.866 35.4699 105.693 36.0743 105.5 37.2831C105.301 36.0298 105.121 35.4291 104.319 35.1065C103.696 34.8544 102.688 34.7728 101 34.6838C102.759 34.5911 103.78 34.5058 104.396 34.2277C105.134 33.894 105.307 33.2933 105.5 32.0808C105.68 33.1969 105.84 33.7939 106.437 34.1387C107.034 34.4836 108.074 34.58 110 34.6801Z" fill="white" fill-opacity="0.6"/>
<path d="M110 34.6801C108.235 34.7728 107.22 34.8581 106.598 35.1399C105.866 35.4699 105.693 36.0743 105.5 37.2831C105.301 36.0298 105.121 35.4291 104.319 35.1065C103.696 34.8544 102.688 34.7728 101 34.6838C102.759 34.5911 103.78 34.5058 104.396 34.2277C105.134 33.894 105.307 33.2933 105.5 32.0808C105.68 33.1969 105.84 33.7939 106.437 34.1387C107.034 34.4836 108.074 34.58 110 34.6801Z" fill="white" fill-opacity="0.6"/>
<path d="M50 113.498C49.2154 113.588 48.7646 113.67 48.4879 113.94C48.1626 114.258 48.0856 114.838 48 116C47.9116 114.796 47.8317 114.218 47.475 113.908C47.1983 113.666 46.7504 113.588 46 113.502C46.7817 113.413 47.2354 113.331 47.5093 113.064C47.8374 112.743 47.9144 112.166 48 111C48.0799 112.073 48.1512 112.647 48.4165 112.978C48.6819 113.31 49.1441 113.402 50 113.498Z" fill="white" fill-opacity="0.6"/>
<path d="M50 113.498C49.2154 113.588 48.7646 113.67 48.4879 113.94C48.1626 114.258 48.0856 114.838 48 116C47.9116 114.796 47.8317 114.218 47.475 113.908C47.1983 113.666 46.7504 113.588 46 113.502C46.7817 113.413 47.2354 113.331 47.5093 113.064C47.8374 112.743 47.9144 112.166 48 111C48.0799 112.073 48.1512 112.647 48.4165 112.978C48.6819 113.31 49.1441 113.402 50 113.498Z" fill="white" fill-opacity="0.6"/>
<path d="M56 177.499C55.2154 177.553 54.7646 177.602 54.4879 177.764C54.1626 177.955 54.0856 178.303 54 179C53.9116 178.278 53.8317 177.931 53.475 177.745C53.1983 177.6 52.7504 177.553 52 177.501C52.7817 177.448 53.2354 177.399 53.5093 177.238C53.8374 177.046 53.9144 176.699 54 176C54.0799 176.644 54.1512 176.988 54.4165 177.187C54.6819 177.386 55.1441 177.441 56 177.499Z" fill="white" fill-opacity="0.6"/>
<path d="M56 177.499C55.2154 177.553 54.7646 177.602 54.4879 177.764C54.1626 177.955 54.0856 178.303 54 179C53.9116 178.278 53.8317 177.931 53.475 177.745C53.1983 177.6 52.7504 177.553 52 177.501C52.7817 177.448 53.2354 177.399 53.5093 177.238C53.8374 177.046 53.9144 176.699 54 176C54.0799 176.644 54.1512 176.988 54.4165 177.187C54.6819 177.386 55.1441 177.441 56 177.499Z" fill="white" fill-opacity="0.6"/>
<path d="M398 210.498C397.019 210.588 396.456 210.67 396.11 210.94C395.703 211.258 395.607 211.838 395.5 213C395.389 211.796 395.29 211.218 394.844 210.908C394.498 210.666 393.938 210.588 393 210.502C393.977 210.413 394.544 210.331 394.887 210.064C395.297 209.743 395.393 209.166 395.5 208C395.6 209.073 395.689 209.647 396.021 209.978C396.352 210.31 396.93 210.402 398 210.498Z" fill="white" fill-opacity="0.6"/>
<path d="M398 210.498C397.019 210.588 396.456 210.67 396.11 210.94C395.703 211.258 395.607 211.838 395.5 213C395.389 211.796 395.29 211.218 394.844 210.908C394.498 210.666 393.938 210.588 393 210.502C393.977 210.413 394.544 210.331 394.887 210.064C395.297 209.743 395.393 209.166 395.5 208C395.6 209.073 395.689 209.647 396.021 209.978C396.352 210.31 396.93 210.402 398 210.498Z" fill="white" fill-opacity="0.6"/>
<path d="M61 83.4985C60.0193 83.5876 59.4558 83.6695 59.1098 83.9404C58.7033 84.2575 58.607 84.8384 58.5 86.0002C58.3894 84.7957 58.2896 84.2183 57.8438 83.9083C57.4979 83.666 56.9379 83.5876 56 83.502C56.9772 83.4129 57.5442 83.331 57.8866 83.0637C58.2967 82.7429 58.393 82.1656 58.5 81.0002C58.5999 82.0729 58.689 82.6467 59.0207 82.9781C59.3524 83.3096 59.9301 83.4022 61 83.4985Z" fill="white"/>
<path d="M304 61.497C302.431 61.6574 301.529 61.8049 300.976 62.2925C300.325 62.8634 300.171 63.909 300 66.0002C299.823 63.832 299.663 62.7928 298.95 62.2347C298.397 61.7985 297.501 61.6574 296 61.5035C297.563 61.3431 298.471 61.1955 299.019 60.7144C299.675 60.1371 299.829 59.0979 300 57.0002C300.16 58.9311 300.302 59.9639 300.833 60.5605C301.364 61.1571 302.288 61.3238 304 61.497Z" fill="white"/>
<path d="M369 149.498C367.627 149.622 366.838 149.737 366.354 150.116C365.785 150.56 365.65 151.374 365.5 153C365.345 151.314 365.205 150.506 364.581 150.072C364.097 149.732 363.313 149.622 362 149.503C363.368 149.378 364.162 149.263 364.641 148.889C365.215 148.44 365.35 147.632 365.5 146C365.64 147.502 365.765 148.305 366.229 148.769C366.693 149.233 367.502 149.363 369 149.498Z" fill="white"/>
<path d="M354 85.9967C352.235 86.1749 351.22 86.3388 350.598 86.8805C349.866 87.5149 349.693 88.6767 349.5 91.0002C349.301 88.5911 349.121 87.4365 348.319 86.8164C347.696 86.3317 346.688 86.1749 345 86.0038C346.759 85.8256 347.78 85.6617 348.396 85.1271C349.134 84.4856 349.307 83.331 349.5 81.0002C349.68 83.1456 349.84 84.2932 350.437 84.9561C351.034 85.6189 352.074 85.8042 354 85.9967Z" fill="white"/>
<path d="M21 32.9974C19.627 33.1399 18.8381 33.2711 18.3538 33.7044C17.7846 34.2119 17.6498 35.1414 17.5 37.0002C17.3452 35.0729 17.2054 34.1492 16.5813 33.6531C16.097 33.2654 15.3131 33.1399 14 33.0031C15.368 32.8605 16.1619 32.7294 16.6412 32.3017C17.2154 31.7886 17.3502 30.8648 17.5 29.0002C17.6398 30.7166 17.7646 31.6346 18.229 32.1649C18.6933 32.6952 19.5021 32.8434 21 32.9974Z" fill="white" fill-opacity="0.9"/>
<path d="M21 32.9974C19.627 33.1399 18.8381 33.2711 18.3538 33.7044C17.7846 34.2119 17.6498 35.1414 17.5 37.0002C17.3452 35.0729 17.2054 34.1492 16.5813 33.6531C16.097 33.2654 15.3131 33.1399 14 33.0031C15.368 32.8605 16.1619 32.7294 16.6412 32.3017C17.2154 31.7886 17.3502 30.8648 17.5 29.0002C17.6398 30.7166 17.7646 31.6346 18.229 32.1649C18.6933 32.6952 19.5021 32.8434 21 32.9974Z" fill="white" fill-opacity="0.9"/>
<path d="M255 30.9979C253.627 31.1048 252.838 31.2031 252.354 31.5282C251.785 31.9088 251.65 32.6058 251.5 34C251.345 32.5545 251.205 31.8617 250.581 31.4897C250.097 31.1989 249.313 31.1048 248 31.0021C249.368 30.8952 250.162 30.7969 250.641 30.4761C251.215 30.0912 251.35 29.3984 251.5 28C251.64 29.2872 251.765 29.9758 252.229 30.3735C252.693 30.7712 253.502 30.8824 255 30.9979Z" fill="white" fill-opacity="0.9"/>
<path d="M255 30.9979C253.627 31.1048 252.838 31.2031 252.354 31.5282C251.785 31.9088 251.65 32.6058 251.5 34C251.345 32.5545 251.205 31.8617 250.581 31.4897C250.097 31.1989 249.313 31.1048 248 31.0021C249.368 30.8952 250.162 30.7969 250.641 30.4761C251.215 30.0912 251.35 29.3984 251.5 28C251.64 29.2872 251.765 29.9758 252.229 30.3735C252.693 30.7712 253.502 30.8824 255 30.9979Z" fill="white" fill-opacity="0.9"/>
<path d="M94 14.4982C93.0193 14.5873 92.4558 14.6693 92.1098 14.9401C91.7033 15.2573 91.607 15.8382 91.5 17C91.3894 15.7954 91.2896 15.2181 90.8438 14.9081C90.4979 14.6657 89.9379 14.5873 89 14.5018C89.9772 14.4127 90.5442 14.3307 90.8866 14.0634C91.2967 13.7427 91.393 13.1654 91.5 12C91.5999 13.0727 91.689 13.6465 92.0207 13.9779C92.3524 14.3093 92.9301 14.402 94 14.4982Z" fill="white" fill-opacity="0.5"/>
<path d="M94 14.4982C93.0193 14.5873 92.4558 14.6693 92.1098 14.9401C91.7033 15.2573 91.607 15.8382 91.5 17C91.3894 15.7954 91.2896 15.2181 90.8438 14.9081C90.4979 14.6657 89.9379 14.5873 89 14.5018C89.9772 14.4127 90.5442 14.3307 90.8866 14.0634C91.2967 13.7427 91.393 13.1654 91.5 12C91.5999 13.0727 91.689 13.6465 92.0207 13.9779C92.3524 14.3093 92.9301 14.402 94 14.4982Z" fill="white" fill-opacity="0.5"/>
<path d="M219 358.739C218.019 358.809 217.456 358.873 217.11 359.084C216.703 359.332 216.607 359.785 216.5 360.692C216.389 359.752 216.289 359.301 215.844 359.059C215.498 358.87 214.938 358.809 214 358.742C214.977 358.673 215.544 358.609 215.886 358.4C216.297 358.15 216.393 357.699 216.5 356.79C216.6 357.627 216.689 358.075 217.021 358.333C217.352 358.592 217.93 358.664 219 358.739Z" fill="white"/>
<path d="M483.742 654.459C382.804 718.077 197.234 759.183 69.2437 746.223C-58.7462 733.263 -80.5593 671.158 20.3783 607.54C121.316 543.922 306.886 502.816 434.876 515.776C562.866 528.736 584.679 590.842 483.742 654.459Z" stroke="url(#paint1_linear_61_23)"/>
<path d="M160 518.492C157.842 518.6 156.603 518.7 155.842 519.028C154.947 519.413 154.735 520.119 154.5 521.529C154.257 520.067 154.037 519.366 153.056 518.989C152.295 518.695 151.063 518.6 149 518.496C151.15 518.388 152.397 518.289 153.15 517.964C154.053 517.575 154.264 516.874 154.5 515.459C154.72 516.762 154.916 517.458 155.645 517.86C156.375 518.263 157.646 518.375 160 518.492Z" fill="white"/>
<path d="M94.0002 761.916C92.6272 762.031 91.8383 762.138 91.354 762.49C90.7848 762.903 90.65 763.658 90.5002 765.169C90.3455 763.603 90.2057 762.852 89.5816 762.449C89.0972 762.133 88.3134 762.031 87.0002 761.92C88.3683 761.804 89.1622 761.698 89.6415 761.35C90.2157 760.933 90.3505 760.182 90.5002 758.667C90.64 760.062 90.7649 760.808 91.2292 761.239C91.6935 761.67 92.5024 761.79 94.0002 761.916Z" fill="white" fill-opacity="0.7"/>
<path d="M103 431.788C101.627 431.865 100.838 431.936 100.354 432.171C99.7848 432.446 99.65 432.95 99.5002 433.957C99.3455 432.913 99.2057 432.412 98.5816 432.143C98.0972 431.933 97.3134 431.865 96.0002 431.791C97.3683 431.714 98.1622 431.643 98.6415 431.411C99.2157 431.133 99.3505 430.632 99.5002 429.622C99.64 430.552 99.7649 431.05 100.229 431.337C100.694 431.624 101.502 431.705 103 431.788Z" fill="white" fill-opacity="0.7"/>
<path d="M309 335.112C307.431 335.22 306.529 335.319 305.976 335.648C305.325 336.033 305.171 336.738 305 338.148C304.823 336.686 304.664 335.985 303.95 335.609C303.397 335.315 302.501 335.22 301 335.116C302.564 335.008 303.471 334.908 304.019 334.584C304.675 334.194 304.829 333.494 305 332.079C305.16 333.381 305.303 334.078 305.833 334.48C306.364 334.882 307.288 334.995 309 335.112Z" fill="white" fill-opacity="0.7"/>
<path d="M375.919 650.785C354.853 669.551 320.711 686.432 282.475 698.55C244.239 710.669 201.946 718.011 164.681 717.684C127.416 717.357 102.272 709.424 91.7256 696.877C81.1794 684.33 85.2361 667.185 106.303 648.419C127.37 629.653 161.511 612.772 199.747 600.653C237.983 588.534 280.276 581.193 317.541 581.52C354.806 581.847 379.95 589.78 390.497 602.327C401.043 614.874 396.986 632.019 375.919 650.785Z" stroke="url(#paint2_linear_61_23)"/>
<path d="M303 374.562C300.646 374.67 299.294 374.77 298.464 375.098C297.488 375.483 297.257 376.189 297 377.599C296.735 376.137 296.495 375.436 295.425 375.06C294.595 374.765 293.251 374.67 291 374.566C293.345 374.458 294.706 374.359 295.528 374.034C296.512 373.645 296.743 372.944 297 371.53C297.24 372.832 297.454 373.528 298.25 373.93C299.046 374.333 300.432 374.445 303 374.562Z" fill="white"/>
<path d="M160 313.87C158.823 313.947 158.147 314.018 157.732 314.253C157.244 314.528 157.129 315.032 157 316.039C156.868 314.994 156.748 314.494 156.213 314.225C155.798 314.015 155.126 313.947 154 313.873C155.173 313.796 155.853 313.724 156.264 313.493C156.756 313.215 156.872 312.714 157 311.704C157.12 312.634 157.227 313.131 157.625 313.419C158.023 313.706 158.716 313.786 160 313.87Z" fill="white" fill-opacity="0.9"/>
<path d="M254 444.143C252.627 444.228 251.838 444.307 251.354 444.565C250.785 444.867 250.65 445.421 250.5 446.53C250.345 445.381 250.206 444.83 249.582 444.534C249.097 444.303 248.313 444.228 247 444.147C248.368 444.062 249.162 443.984 249.641 443.729C250.216 443.423 250.35 442.872 250.5 441.761C250.64 442.784 250.765 443.331 251.229 443.647C251.694 443.963 252.502 444.052 254 444.143Z" fill="white" fill-opacity="0.9"/>
<path d="M270 673.91C268.627 674.011 267.838 674.103 267.354 674.408C266.785 674.766 266.65 675.421 266.5 676.73C266.345 675.373 266.206 674.722 265.582 674.372C265.097 674.099 264.313 674.011 263 673.914C264.368 673.814 265.162 673.722 265.641 673.42C266.216 673.059 266.35 672.408 266.5 671.094C266.64 672.304 266.765 672.95 267.229 673.324C267.694 673.697 268.502 673.802 270 673.91Z" fill="white"/>
<path d="M186 449.129C184.431 449.221 183.529 449.307 182.976 449.588C182.325 449.918 182.171 450.523 182 451.732C181.823 450.478 181.664 449.878 180.95 449.555C180.397 449.303 179.501 449.221 178 449.132C179.564 449.04 180.471 448.954 181.019 448.676C181.675 448.342 181.829 447.742 182 446.529C182.16 447.645 182.303 448.242 182.833 448.587C183.364 448.932 184.288 449.028 186 449.129Z" fill="white" fill-opacity="0.6"/>
<path d="M400 352.67C398.235 352.755 397.22 352.833 396.598 353.091C395.866 353.394 395.693 353.948 395.5 355.056C395.301 353.907 395.121 353.356 394.319 353.061C393.696 352.83 392.688 352.755 391 352.673C392.759 352.588 393.78 352.51 394.396 352.255C395.134 351.949 395.307 351.399 395.5 350.287C395.68 351.31 395.84 351.857 396.437 352.174C397.034 352.49 398.074 352.578 400 352.67Z" fill="white"/>
<path d="M22 389.737C20.627 389.798 19.8381 389.855 19.3538 390.043C18.7846 390.263 18.6498 390.666 18.5 391.472C18.3452 390.636 18.2054 390.236 17.5813 390.021C17.097 389.853 16.3131 389.798 15 389.739C16.368 389.677 17.1619 389.62 17.6412 389.435C18.2154 389.212 18.3502 388.812 18.5 388.004C18.6398 388.748 18.7646 389.146 19.229 389.376C19.6933 389.606 20.5021 389.67 22 389.737Z" fill="white" fill-opacity="0.75"/>
<path d="M411 407.076C409.235 407.2 408.22 407.314 407.598 407.689C406.866 408.129 406.693 408.935 406.5 410.547C406.301 408.876 406.121 408.075 405.319 407.645C404.696 407.309 403.688 407.2 402 407.081C403.759 406.958 404.78 406.844 405.396 406.473C406.134 406.028 406.307 405.227 406.5 403.611C406.68 405.099 406.84 405.895 407.437 406.354C408.034 406.814 409.074 406.943 411 407.076Z" fill="white" fill-opacity="0.75"/>
<path d="M66 274.419C64.4308 274.496 63.5292 274.567 62.9757 274.802C62.3252 275.077 62.1712 275.581 62 276.588C61.8231 275.544 61.6633 275.043 60.9501 274.774C60.3966 274.564 59.5007 274.496 58 274.422C59.5635 274.345 60.4708 274.274 61.0185 274.042C61.6748 273.764 61.8288 273.263 62 272.253C62.1598 273.183 62.3024 273.68 62.8331 273.968C63.3638 274.255 64.2882 274.336 66 274.419Z" fill="white" fill-opacity="0.6"/>
<path d="M281 251.443C279.039 251.504 277.912 251.561 277.22 251.749C276.407 251.969 276.214 252.372 276 253.178C275.779 252.342 275.579 251.942 274.688 251.727C273.996 251.559 272.876 251.504 271 251.445C272.954 251.383 274.088 251.326 274.773 251.141C275.593 250.919 275.786 250.518 276 249.71C276.2 250.454 276.378 250.852 277.041 251.082C277.705 251.312 278.86 251.376 281 251.443Z" fill="white"/>
<path d="M116 243.206C115.019 243.252 114.456 243.295 114.11 243.436C113.703 243.601 113.607 243.903 113.5 244.507C113.389 243.881 113.29 243.58 112.844 243.419C112.498 243.293 111.938 243.252 111 243.208C111.977 243.161 112.544 243.119 112.887 242.98C113.297 242.813 113.393 242.513 113.5 241.906C113.6 242.464 113.689 242.763 114.021 242.935C114.352 243.108 114.93 243.156 116 243.206Z" fill="white" fill-opacity="0.6"/>
<path d="M116 243.206C115.019 243.252 114.456 243.295 114.11 243.436C113.703 243.601 113.607 243.903 113.5 244.507C113.389 243.881 113.29 243.58 112.844 243.419C112.498 243.293 111.938 243.252 111 243.208C111.977 243.161 112.544 243.119 112.887 242.98C113.297 242.813 113.393 242.513 113.5 241.906C113.6 242.464 113.689 242.763 114.021 242.935C114.352 243.108 114.93 243.156 116 243.206Z" fill="white" fill-opacity="0.6"/>
<path d="M331 2062.47C329.823 2062.55 329.147 2062.62 328.732 2062.87C328.244 2063.16 328.128 2063.7 328 2064.76C327.867 2063.66 327.748 2063.13 327.213 2062.84C326.797 2062.62 326.126 2062.55 325 2062.47C326.173 2062.39 326.853 2062.31 327.264 2062.07C327.756 2061.77 327.872 2061.24 328 2060.17C328.12 2061.16 328.227 2061.69 328.625 2061.99C329.023 2062.29 329.716 2062.38 331 2062.47Z" fill="white" fill-opacity="0.7"/>
<path d="M331 2062.47C329.823 2062.55 329.147 2062.62 328.732 2062.87C328.244 2063.16 328.128 2063.7 328 2064.76C327.867 2063.66 327.748 2063.13 327.213 2062.84C326.797 2062.62 326.126 2062.55 325 2062.47C326.173 2062.39 326.853 2062.31 327.264 2062.07C327.756 2061.77 327.872 2061.24 328 2060.17C328.12 2061.16 328.227 2061.69 328.625 2061.99C329.023 2062.29 329.716 2062.38 331 2062.47Z" fill="white" fill-opacity="0.7"/>
<path d="M296 2033C294.627 2033.1 293.838 2033.2 293.354 2033.53C292.785 2033.91 292.65 2034.61 292.5 2036C292.345 2034.55 292.205 2033.86 291.581 2033.49C291.097 2033.2 290.313 2033.1 289 2033C290.368 2032.9 291.162 2032.8 291.641 2032.48C292.215 2032.09 292.35 2031.4 292.5 2030C292.64 2031.29 292.765 2031.98 293.229 2032.37C293.693 2032.77 294.502 2032.88 296 2033Z" fill="white"/>
<path d="M381 2091.34C379.823 2091.38 379.147 2091.43 378.732 2091.57C378.244 2091.74 378.128 2092.05 378 2092.68C377.867 2092.03 377.748 2091.72 377.213 2091.56C376.797 2091.43 376.126 2091.38 375 2091.34C376.173 2091.29 376.853 2091.25 377.264 2091.1C377.756 2090.93 377.872 2090.62 378 2090C378.12 2090.57 378.227 2090.88 378.625 2091.06C379.023 2091.24 379.716 2091.29 381 2091.34Z" fill="white" fill-opacity="0.5"/>
<path d="M381 2091.34C379.823 2091.38 379.147 2091.43 378.732 2091.57C378.244 2091.74 378.128 2092.05 378 2092.68C377.867 2092.03 377.748 2091.72 377.213 2091.56C376.797 2091.43 376.126 2091.38 375 2091.34C376.173 2091.29 376.853 2091.25 377.264 2091.1C377.756 2090.93 377.872 2090.62 378 2090C378.12 2090.57 378.227 2090.88 378.625 2091.06C379.023 2091.24 379.716 2091.29 381 2091.34Z" fill="white" fill-opacity="0.5"/>
<path d="M406 1922.2C403.842 1922.28 402.603 1922.36 401.842 1922.61C400.947 1922.9 400.735 1923.44 400.5 1924.52C400.257 1923.4 400.037 1922.87 399.056 1922.58C398.295 1922.36 397.063 1922.28 395 1922.21C397.15 1922.12 398.397 1922.05 399.15 1921.8C400.053 1921.5 400.265 1920.97 400.5 1919.89C400.72 1920.88 400.916 1921.42 401.646 1921.72C402.375 1922.03 403.646 1922.11 406 1922.2Z" fill="white" fill-opacity="0.6"/>
<path d="M190 1961C187.842 1961.17 186.603 1961.34 185.842 1961.88C184.947 1962.51 184.735 1963.68 184.5 1966C184.257 1963.59 184.037 1962.44 183.056 1961.82C182.295 1961.33 181.063 1961.17 179 1961C181.15 1960.83 182.397 1960.66 183.15 1960.13C184.053 1959.49 184.265 1958.33 184.5 1956C184.72 1958.15 184.916 1959.29 185.646 1959.96C186.375 1960.62 187.646 1960.8 190 1961Z" fill="white"/>
<path d="M381 1948.99C378.45 1949.28 376.985 1949.54 376.086 1950.41C375.029 1951.42 374.778 1953.28 374.5 1957C374.213 1953.15 373.953 1951.3 372.794 1950.31C371.894 1949.53 370.439 1949.28 368 1949.01C370.541 1948.72 372.015 1948.46 372.905 1947.6C373.971 1946.58 374.222 1944.73 374.5 1941C374.76 1944.43 374.991 1946.27 375.854 1947.33C376.716 1948.39 378.218 1948.69 381 1948.99Z" fill="white"/>
<path d="M245 1993.5C244.215 1993.59 243.765 1993.67 243.488 1993.94C243.163 1994.26 243.086 1994.84 243 1996C242.912 1994.8 242.832 1994.22 242.475 1993.91C242.198 1993.67 241.75 1993.59 241 1993.5C241.782 1993.41 242.235 1993.33 242.509 1993.06C242.837 1992.74 242.914 1992.17 243 1991C243.08 1992.07 243.151 1992.65 243.417 1992.98C243.682 1993.31 244.144 1993.4 245 1993.5Z" fill="white" fill-opacity="0.7"/>
<path d="M245 1993.5C244.215 1993.59 243.765 1993.67 243.488 1993.94C243.163 1994.26 243.086 1994.84 243 1996C242.912 1994.8 242.832 1994.22 242.475 1993.91C242.198 1993.67 241.75 1993.59 241 1993.5C241.782 1993.41 242.235 1993.33 242.509 1993.06C242.837 1992.74 242.914 1992.17 243 1991C243.08 1992.07 243.151 1992.65 243.417 1992.98C243.682 1993.31 244.144 1993.4 245 1993.5Z" fill="white" fill-opacity="0.7"/>
<path d="M119.049 1947.54C118.058 1947.67 117.489 1947.78 117.14 1948.17C116.73 1948.62 116.632 1949.44 116.524 1951.09C116.413 1949.38 116.312 1948.56 115.862 1948.12C115.512 1947.78 114.947 1947.67 114 1947.55C114.987 1947.42 115.559 1947.3 115.905 1946.92C116.319 1946.47 116.416 1945.65 116.524 1944C116.625 1945.52 116.715 1946.33 117.05 1946.8C117.385 1947.27 117.968 1947.4 119.049 1947.54Z" fill="white"/>
<path d="M407.025 843.227C414.946 858.547 415.557 876.768 409.819 896.642C404.08 916.52 391.995 938.022 374.568 959.854C339.717 1003.52 283.562 1048.43 214.357 1084.2C145.153 1119.98 76.0445 1139.83 20.2685 1143.02C-7.62011 1144.62 -32.1515 1142.05 -51.6881 1135.24C-71.2213 1128.43 -85.7341 1117.39 -93.6543 1102.07C-101.574 1086.75 -102.186 1068.53 -96.4481 1048.66C-90.7088 1028.78 -78.6236 1007.28 -61.1973 985.446C-26.3457 941.783 29.809 896.875 99.0136 861.097C168.218 825.319 237.327 805.467 293.103 802.277C320.991 800.682 345.522 803.254 365.059 810.064C384.592 816.873 399.105 827.907 407.025 843.227Z" stroke="url(#paint3_linear_61_23)"/>
<path d="M414 386.485C412.431 386.554 411.529 386.618 410.976 386.83C410.325 387.077 410.171 387.531 410 388.437C409.823 387.497 409.663 387.047 408.95 386.805C408.397 386.616 407.501 386.554 406 386.488C407.563 386.418 408.471 386.354 409.019 386.146C409.675 385.895 409.829 385.445 410 384.535C410.16 385.372 410.302 385.82 410.833 386.079C411.364 386.337 412.288 386.41 414 386.485Z" fill="white"/>
<path d="M107 368.059C104.45 368.168 102.985 368.267 102.086 368.596C101.029 368.981 100.778 369.686 100.5 371.096C100.213 369.634 99.9529 368.933 98.7939 368.557C97.8944 368.263 96.4387 368.168 94 368.064C96.5407 367.956 98.015 367.856 98.9051 367.532C99.9715 367.142 100.222 366.441 100.5 365.027C100.76 366.329 100.991 367.025 101.854 367.428C102.716 367.83 104.218 367.943 107 368.059Z" fill="white"/>
<path d="M105.015 1779.34C103.034 1779.53 101.896 1779.69 101.197 1780.25C100.376 1780.9 100.182 1782.09 99.9659 1784.47C99.7426 1782 99.541 1780.82 98.6407 1780.18C97.9421 1779.69 96.8113 1779.53 94.9171 1779.35C96.8905 1779.17 98.0357 1779 98.7271 1778.45C99.5554 1777.8 99.7498 1776.61 99.9659 1774.23C100.168 1776.43 100.348 1777.6 101.017 1778.28C101.687 1778.96 102.854 1779.15 105.015 1779.34Z" fill="white"/>
<path d="M65.6341 1911.23C62.4651 1911.57 60.6444 1911.88 59.5266 1912.9C58.2129 1914.1 57.9018 1916.3 57.5561 1920.69C57.1988 1916.13 56.8762 1913.95 55.4357 1912.78C54.3179 1911.86 52.5087 1911.57 49.478 1911.24C52.6355 1910.91 54.4677 1910.6 55.574 1909.59C56.8992 1908.38 57.2104 1906.19 57.5561 1901.79C57.8787 1905.84 58.1668 1908.01 59.2385 1909.26C60.3102 1910.52 62.177 1910.87 65.6341 1911.23Z" fill="white"/>
<path d="M323 1837C321.431 1837.17 320.529 1837.34 319.976 1837.88C319.325 1838.51 319.171 1839.68 319 1842C318.823 1839.59 318.663 1838.44 317.95 1837.82C317.397 1837.33 316.501 1837.17 315 1837C316.563 1836.83 317.471 1836.66 318.019 1836.13C318.675 1835.49 318.829 1834.33 319 1832C319.16 1834.15 319.302 1835.29 319.833 1835.96C320.364 1836.62 321.288 1836.8 323 1837Z" fill="white"/>
<path d="M226 1824.5C224.627 1824.66 223.838 1824.8 223.354 1825.29C222.785 1825.86 222.65 1826.91 222.5 1829C222.345 1826.83 222.205 1825.79 221.581 1825.23C221.097 1824.8 220.313 1824.66 219 1824.5C220.368 1824.34 221.162 1824.2 221.641 1823.71C222.215 1823.14 222.35 1822.1 222.5 1820C222.64 1821.93 222.765 1822.96 223.229 1823.56C223.693 1824.16 224.502 1824.32 226 1824.5Z" fill="white"/>
<path d="M180.746 1706.11C178.766 1706.3 177.628 1706.46 176.929 1707.02C176.108 1707.67 175.914 1708.86 175.698 1711.24C175.474 1708.77 175.273 1707.59 174.372 1706.95C173.674 1706.46 172.543 1706.3 170.649 1706.12C172.622 1705.94 173.767 1705.77 174.459 1705.22C175.287 1704.57 175.482 1703.39 175.698 1701C175.899 1703.2 176.079 1704.37 176.749 1705.05C177.419 1705.73 178.586 1705.92 180.746 1706.11Z" fill="white"/>
<path d="M357.454 2023.83C355.869 2024 354.959 2024.16 354.4 2024.67C353.743 2025.27 353.587 2026.37 353.415 2028.56C353.236 2026.29 353.075 2025.19 352.354 2024.61C351.796 2024.15 350.891 2024 349.376 2023.84C350.954 2023.67 351.87 2023.52 352.424 2023.01C353.086 2022.41 353.242 2021.32 353.415 2019.11C353.576 2021.14 353.72 2022.22 354.256 2022.85C354.792 2023.48 355.725 2023.65 357.454 2023.83Z" fill="white" fill-opacity="0.6"/>
<path d="M49.4781 2013.6C48.2897 2013.74 47.6069 2013.87 47.1878 2014.29C46.6951 2014.79 46.5785 2015.71 46.4488 2017.54C46.3149 2015.64 46.1939 2014.73 45.6537 2014.24C45.2345 2013.86 44.5561 2013.74 43.4196 2013.6C44.6036 2013.46 45.2907 2013.33 45.7056 2012.91C46.2025 2012.41 46.3192 2011.5 46.4488 2009.66C46.5698 2011.35 46.6779 2012.26 47.0797 2012.78C47.4816 2013.3 48.1817 2013.45 49.4781 2013.6Z" fill="white" fill-opacity="0.8"/>
<path d="M72.7025 2110.45C71.7122 2110.56 71.1432 2110.67 70.7939 2111.01C70.3833 2111.41 70.2861 2112.14 70.1781 2113.6C70.0664 2112.08 69.9656 2111.36 69.5155 2110.97C69.1662 2110.66 68.6008 2110.56 67.6537 2110.45C68.6404 2110.34 69.213 2110.24 69.5587 2109.9C69.9728 2109.5 70.07 2108.77 70.1781 2107.3C70.2789 2108.65 70.3689 2109.38 70.7038 2109.79C71.0387 2110.21 71.6221 2110.33 72.7025 2110.45Z" fill="white" fill-opacity="0.7"/>
<path d="M29.2829 2110.84C28.2926 2110.94 27.7236 2111.03 27.3743 2111.33C26.9638 2111.68 26.8666 2112.32 26.7585 2113.6C26.6469 2112.27 26.5461 2111.64 26.0959 2111.3C25.7466 2111.03 25.1812 2110.94 24.2341 2110.85C25.2208 2110.75 25.7934 2110.66 26.1391 2110.36C26.5533 2110.01 26.6505 2109.37 26.7585 2108.09C26.8594 2109.27 26.9494 2109.9 27.2843 2110.27C27.6192 2110.64 28.2026 2110.74 29.2829 2110.84Z" fill="white" fill-opacity="0.2"/>
<path d="M103.059 2035.97C101.87 2036.04 101.187 2036.1 100.768 2036.32C100.276 2036.56 100.159 2037.02 100.029 2037.94C99.8953 2036.99 99.7743 2036.53 99.2341 2036.29C98.815 2036.1 98.1365 2036.04 97 2035.97C98.1841 2035.9 98.8711 2035.84 99.286 2035.62C99.783 2035.37 99.8996 2034.92 100.029 2034C100.15 2034.84 100.258 2035.3 100.66 2035.56C101.062 2035.82 101.762 2035.89 103.059 2035.97Z" fill="white"/>
<path d="M193.873 2110.45C192.883 2110.56 192.314 2110.67 191.965 2111.01C191.554 2111.41 191.457 2112.14 191.349 2113.6C191.237 2112.08 191.136 2111.36 190.686 2110.97C190.337 2110.66 189.772 2110.56 188.824 2110.45C189.811 2110.34 190.384 2110.24 190.729 2109.9C191.144 2109.5 191.241 2108.77 191.349 2107.3C191.45 2108.65 191.54 2109.38 191.875 2109.79C192.21 2110.21 192.793 2110.33 193.873 2110.45Z" fill="white" fill-opacity="0.7"/>
<path d="M239.068 2029.33C237.682 2029.48 236.885 2029.62 236.396 2030.09C235.822 2030.64 235.685 2031.65 235.534 2033.66C235.378 2031.57 235.237 2030.57 234.606 2030.04C234.117 2029.62 233.326 2029.48 232 2029.33C233.381 2029.18 234.183 2029.04 234.667 2028.57C235.247 2028.02 235.383 2027.02 235.534 2025C235.675 2026.86 235.801 2027.85 236.27 2028.43C236.739 2029 237.556 2029.16 239.068 2029.33Z" fill="white" fill-opacity="0.8"/>
<path d="M268.595 1931.71C267.407 1931.82 266.724 1931.92 266.305 1932.26C265.812 1932.66 265.696 1933.4 265.566 1934.86C265.432 1933.34 265.311 1932.61 264.771 1932.22C264.352 1931.92 263.673 1931.82 262.537 1931.71C263.721 1931.6 264.408 1931.5 264.823 1931.16C265.32 1930.76 265.436 1930.03 265.566 1928.56C265.687 1929.91 265.795 1930.63 266.197 1931.05C266.599 1931.47 267.299 1931.59 268.595 1931.71Z" fill="white"/>
<path d="M179 2061.5C177.627 2061.66 176.838 2061.8 176.354 2062.29C175.785 2062.86 175.65 2063.91 175.5 2066C175.345 2063.83 175.205 2062.79 174.581 2062.23C174.097 2061.8 173.313 2061.66 172 2061.5C173.368 2061.34 174.162 2061.2 174.641 2060.71C175.215 2060.14 175.35 2059.1 175.5 2057C175.64 2058.93 175.765 2059.96 176.229 2060.56C176.693 2061.16 177.502 2061.32 179 2061.5Z" fill="white" fill-opacity="0.9"/>
<path d="M16.1561 1958.08C13.9775 1958.32 12.7257 1958.54 11.9572 1959.27C11.0541 1960.12 10.8402 1961.67 10.6025 1964.78C10.3569 1961.56 10.1351 1960.01 9.14475 1959.18C8.37627 1958.53 7.13244 1958.32 5.04883 1958.09C7.21959 1957.85 8.47926 1957.64 9.23982 1956.92C10.1509 1956.06 10.3648 1954.52 10.6025 1951.4C10.8243 1954.27 11.0224 1955.8 11.7592 1956.69C12.496 1957.58 13.7794 1957.83 16.1561 1958.08Z" fill="white"/>
<path d="M10.0976 2028.56C8.11694 2028.73 6.97898 2028.88 6.28037 2029.39C5.45931 2029.99 5.26485 2031.09 5.04878 2033.29C4.82551 2031.01 4.62385 2029.92 3.72357 2029.33C3.02495 2028.87 1.89419 2028.73 0 2028.56C1.97342 2028.4 3.11858 2028.24 3.80999 2027.74C4.63825 2027.13 4.83271 2026.04 5.04878 2023.84C5.25044 2025.86 5.4305 2026.95 6.10031 2027.57C6.77012 2028.2 7.93688 2028.38 10.0976 2028.56Z" fill="white" fill-opacity="0.7"/>
<path d="M343.068 1985.93C341.682 1986.07 340.885 1986.2 340.396 1986.63C339.822 1987.13 339.685 1988.04 339.534 1989.87C339.378 1987.98 339.237 1987.07 338.606 1986.58C338.117 1986.2 337.326 1986.07 336 1985.94C337.381 1985.8 338.183 1985.67 338.667 1985.25C339.247 1984.74 339.383 1983.84 339.534 1982C339.675 1983.69 339.801 1984.59 340.27 1985.11C340.739 1985.64 341.556 1985.78 343.068 1985.93Z" fill="white"/>
<path d="M305.956 2089.97C303.975 2090.2 302.838 2090.41 302.139 2091.09C301.318 2091.89 301.123 2093.35 300.907 2096.28C300.684 2093.24 300.482 2091.79 299.582 2091.01C298.883 2090.4 297.753 2090.2 295.859 2089.98C297.832 2089.76 298.977 2089.55 299.669 2088.88C300.497 2088.07 300.691 2086.62 300.907 2083.68C301.109 2086.38 301.289 2087.83 301.959 2088.66C302.629 2089.5 303.795 2089.73 305.956 2089.97Z" fill="white" fill-opacity="0.5"/>
</g>
<defs>
<linearGradient id="paint0_linear_61_23" x1="20.3378" y1="158.486" x2="350.29" y2="129.689" gradientUnits="userSpaceOnUse">
<stop stop-color="#484848"/>
<stop offset="0.491388" stop-color="#484848" stop-opacity="0.36"/>
<stop offset="1" stop-color="#484848"/>
</linearGradient>
<linearGradient id="paint1_linear_61_23" x1="53.9279" y1="595.824" x2="178.756" y2="812.603" gradientUnits="userSpaceOnUse">
<stop stop-color="#484848"/>
<stop offset="0.491388" stop-color="#484848" stop-opacity="0.36"/>
<stop offset="1" stop-color="#484848"/>
</linearGradient>
<linearGradient id="paint2_linear_61_23" x1="122.264" y1="640.769" x2="220.333" y2="763.305" gradientUnits="userSpaceOnUse">
<stop stop-color="#484848"/>
<stop offset="0.491388" stop-color="#484848" stop-opacity="0.36"/>
<stop offset="1" stop-color="#484848"/>
</linearGradient>
<linearGradient id="paint3_linear_61_23" x1="-86.1673" y1="1082.2" x2="398.362" y2="912.977" gradientUnits="userSpaceOnUse">
<stop stop-color="#484848"/>
<stop offset="0.491388" stop-color="#FDE4E4" stop-opacity="0.36"/>
<stop offset="1" stop-color="#484848"/>
</linearGradient>
<clipPath id="clip0_61_23">
<rect width="414" height="2126" fill="white"/>
</clipPath>
<clipPath id="clip1_61_23">
<rect width="414" height="500" fill="white" transform="translate(0 39)"/>
</clipPath>
</defs>
</svg>
