<svg width="30" height="30" viewBox="0 0 30 30" fill="none" xmlns="http://www.w3.org/2000/svg">
<path fill-rule="evenodd" clip-rule="evenodd" d="M5.09804 0C2.28247 0 0 2.23858 0 5V25C0 27.7614 2.28247 30 5.09804 30H24.902C27.7175 30 30 27.7614 30 25V5C30 2.23858 27.7175 0 24.902 0H5.09804ZM4.1173 6.711C4.1173 8.21937 5.28334 9.32169 6.72166 9.32169C8.16026 9.32169 9.3263 8.21937 9.3263 6.711C9.3263 5.20283 8.16026 4.09927 6.72166 4.09927C5.28334 4.09927 4.1173 5.20283 4.1173 6.711ZM21.1173 25.7828H25.6348V16.847C25.6348 12.4338 22.9108 10.9286 20.3901 10.9286C18.0593 10.9286 16.4759 12.4471 16.0388 13.3366V11.3347H11.6943V25.7828H16.2117V17.9495C16.2117 15.8609 17.5257 14.8451 18.8662 14.8451C20.1341 14.8451 21.1173 15.5632 21.1173 17.8915V25.7828ZM8.98034 11.3236V25.7717H4.46307V11.3236H8.98034Z" fill="white"/>
</svg>
