<svg width="1449" height="4904" viewBox="0 0 1449 4904" fill="none" xmlns="http://www.w3.org/2000/svg">
<g clip-path="url(#clip0_642_1002)">
<rect width="1449" height="4904" fill="#0B0B0F"/>
<g filter="url(#filter0_f_642_1002)">
<ellipse cx="1252" cy="1918" rx="141" ry="146" transform="rotate(-90 1252 1918)" fill="url(#paint0_linear_642_1002)"/>
</g>
<path d="M997 1429.49C993.273 1429.97 991.132 1430.41 989.817 1431.88C988.272 1433.59 987.907 1436.73 987.5 1443C987.08 1436.5 986.7 1433.38 985.006 1431.7C983.692 1430.39 981.564 1429.97 978 1429.51C981.713 1429.03 983.868 1428.59 985.169 1427.14C986.728 1425.41 987.093 1422.29 987.5 1416C987.879 1421.79 988.218 1424.89 989.479 1426.68C990.739 1428.47 992.934 1428.97 997 1429.49Z" fill="white" fill-opacity="0.6"/>
<path d="M722 1331.99C718.077 1332.42 715.823 1332.81 714.439 1334.11C712.813 1335.64 712.428 1338.42 712 1344C711.558 1338.22 711.158 1335.45 709.375 1333.96C707.991 1332.8 705.752 1332.42 702 1332.01C705.909 1331.58 708.177 1331.19 709.546 1329.9C711.187 1328.36 711.572 1325.59 712 1320C712.399 1325.15 712.756 1327.9 714.083 1329.49C715.409 1331.08 717.72 1331.53 722 1331.99Z" fill="white"/>
<path d="M1151.77 1537.12C1169.2 1593.98 1135.98 1660.64 1067.81 1722.5C999.671 1784.33 896.756 1841.22 775.209 1878.49C653.663 1915.76 536.545 1926.34 445.46 1913.34C354.331 1900.32 289.449 1863.74 272.013 1806.88C254.578 1750.02 287.802 1683.36 355.972 1621.5C424.11 1559.67 527.025 1502.78 648.572 1465.51C770.119 1428.24 887.236 1417.66 978.321 1430.66C1069.45 1443.68 1134.33 1480.26 1151.77 1537.12Z" stroke="url(#paint1_linear_642_1002)"/>
<path d="M437.849 1693.62C429.248 1694.39 424.306 1695.1 421.273 1697.44C417.707 1700.18 416.863 1705.21 415.924 1715.26C414.955 1704.84 414.079 1699.85 410.17 1697.16C407.136 1695.07 402.226 1694.39 394 1693.65C402.57 1692.88 407.542 1692.17 410.545 1689.85C414.142 1687.08 414.986 1682.08 415.924 1672C416.8 1681.28 417.582 1686.25 420.491 1689.11C423.399 1691.98 428.466 1692.78 437.849 1693.62Z" fill="white"/>
<path d="M131 2257.99C124.135 2258.66 120.19 2259.29 117.769 2261.34C114.923 2263.76 114.249 2268.17 113.5 2277C112.726 2267.85 112.027 2263.46 108.907 2261.1C106.485 2259.26 102.566 2258.66 96 2258.01C102.84 2257.34 106.81 2256.71 109.206 2254.68C112.077 2252.24 112.751 2247.86 113.5 2239C114.199 2247.15 114.823 2251.51 117.145 2254.03C119.466 2256.55 123.511 2257.26 131 2257.99Z" fill="white" fill-opacity="0.7"/>
<path d="M173 1497.99C166.919 1498.52 163.426 1499.02 161.281 1500.64C158.76 1502.54 158.163 1506.03 157.5 1513C156.815 1505.77 156.195 1502.31 153.432 1500.45C151.287 1498.99 147.815 1498.52 142 1498.01C148.058 1497.48 151.574 1496.98 153.697 1495.38C156.24 1493.46 156.837 1489.99 157.5 1483C158.119 1489.44 158.672 1492.88 160.728 1494.87C162.785 1496.86 166.367 1497.41 173 1497.99Z" fill="white" fill-opacity="0.7"/>
<g clip-path="url(#clip1_642_1002)">
<path d="M1154.2 1264.49C1147.15 1265.15 1143.09 1265.75 1140.6 1267.76C1137.68 1270.1 1136.98 1274.4 1136.22 1283C1135.42 1274.09 1134.7 1269.81 1131.49 1267.52C1129 1265.73 1124.98 1265.15 1118.23 1264.51C1125.26 1263.85 1129.34 1263.25 1131.8 1261.27C1134.75 1258.9 1135.45 1254.62 1136.22 1246C1136.93 1253.94 1137.58 1258.18 1139.96 1260.64C1142.35 1263.09 1146.5 1263.77 1154.2 1264.49Z" fill="white" fill-opacity="0.7"/>
<g filter="url(#filter1_f_642_1002)">
<rect width="286.366" height="406.247" transform="matrix(-1 0 0 1 1493.53 1563)" fill="url(#paint2_linear_642_1002)"/>
</g>
<g filter="url(#filter2_f_642_1002)">
<path d="M-84.9414 1542H-341.764V1775H-84.9414V1542Z" fill="url(#paint3_linear_642_1002)" fill-opacity="0.7"/>
</g>
<g filter="url(#filter3_f_642_1002)">
<rect width="286.366" height="406.247" transform="matrix(-1 0 0 1 286.365 1572)" fill="url(#paint4_linear_642_1002)"/>
</g>
<path d="M1382.3 1497.54C1417.98 1620.57 1364.1 1757.03 1247.94 1878.25C1131.79 1999.45 953.441 2105.31 740.42 2167.08C527.399 2228.86 320.083 2234.82 157.114 2194.56C-5.87092 2154.29 -124.4 2067.82 -160.074 1944.79C-195.749 1821.77 -141.868 1685.3 -25.7089 1564.09C90.4396 1442.88 268.786 1337.02 481.808 1275.25C694.829 1213.47 902.144 1207.51 1065.11 1247.77C1228.1 1288.04 1346.63 1374.51 1382.3 1497.54Z" stroke="url(#paint5_linear_642_1002)"/>
<path d="M1119.07 1358.87C1109.88 1359.72 1104.61 1360.5 1101.37 1363.09C1097.57 1366.12 1096.66 1371.67 1095.66 1382.77C1094.63 1371.27 1093.69 1365.75 1089.52 1362.79C1086.28 1360.47 1081.04 1359.72 1072.26 1358.9C1081.41 1358.05 1086.72 1357.27 1089.92 1354.72C1093.76 1351.65 1094.66 1346.14 1095.66 1335C1096.6 1345.25 1097.43 1350.73 1100.54 1353.9C1103.64 1357.07 1109.05 1357.95 1119.07 1358.87Z" fill="white"/>
<g filter="url(#filter4_f_642_1002)">
<rect width="211.975" height="219" transform="matrix(-1 0 0 1 1364.4 1324)" fill="url(#paint6_linear_642_1002)"/>
</g>
<path d="M443.694 1224.99C438.598 1225.56 435.67 1226.08 433.872 1227.82C431.759 1229.85 431.259 1233.56 430.703 1241C430.128 1233.29 429.61 1229.6 427.293 1227.61C425.495 1226.06 422.586 1225.56 417.712 1225.01C422.79 1224.44 425.736 1223.92 427.515 1222.21C429.647 1220.15 430.147 1216.46 430.703 1209C431.222 1215.87 431.685 1219.54 433.409 1221.66C435.132 1223.78 438.134 1224.37 443.694 1224.99Z" fill="white" fill-opacity="0.9"/>
<path d="M887.387 1526.49C882.291 1527.04 879.363 1527.55 877.565 1529.23C875.453 1531.2 874.952 1534.8 874.396 1542C873.822 1534.53 873.303 1530.95 870.986 1529.03C869.189 1527.53 866.279 1527.04 861.405 1526.51C866.483 1525.96 869.43 1525.45 871.209 1523.79C873.34 1521.8 873.84 1518.23 874.396 1511C874.915 1517.65 875.379 1521.21 877.102 1523.26C878.825 1525.32 881.828 1525.89 887.387 1526.49Z" fill="white" fill-opacity="0.9"/>
<path d="M973 2055.49C966.135 2056.11 962.19 2056.68 959.769 2058.58C956.923 2060.8 956.249 2064.87 955.5 2073C954.726 2064.57 954.027 2060.53 950.907 2058.36C948.485 2056.66 944.566 2056.11 938 2055.51C944.84 2054.89 948.81 2054.32 951.206 2052.44C954.077 2050.2 954.751 2046.16 955.5 2038C956.199 2045.51 956.823 2049.53 959.145 2051.85C961.466 2054.17 965.511 2054.81 973 2055.49Z" fill="white"/>
<g filter="url(#filter5_iiii_642_1002)">
<path d="M1315.58 1386C1342.34 1401.47 1351.51 1435.72 1336.05 1462.5C1320.6 1489.29 1286.37 1498.46 1259.61 1482.99C1232.84 1467.53 1223.67 1433.28 1239.13 1406.5C1254.58 1379.71 1288.81 1370.54 1315.58 1386Z" fill="url(#paint7_linear_642_1002)"/>
</g>
</g>
<g clip-path="url(#clip2_642_1002)">
<g filter="url(#filter6_f_642_1002)">
<rect x="913" y="2629" width="294" height="291" fill="url(#paint8_linear_642_1002)"/>
</g>
<g filter="url(#filter7_f_642_1002)">
<rect x="87" y="2192" width="900" height="669" fill="url(#paint9_linear_642_1002)"/>
</g>
<g filter="url(#filter8_f_642_1002)">
<ellipse cx="1089.51" cy="2811.17" rx="93.4016" ry="88.0494" transform="rotate(-0.0720347 1089.51 2811.17)" fill="url(#paint10_diamond_642_1002)"/>
</g>
<g filter="url(#filter9_f_642_1002)">
<rect x="773" y="2352" width="279" height="415" fill="url(#paint11_linear_642_1002)"/>
</g>
<g filter="url(#filter10_f_642_1002)">
<ellipse cx="876" cy="2427.11" rx="110.882" ry="93.9688" transform="rotate(-0.0720347 876 2427.11)" fill="url(#paint12_diamond_642_1002)"/>
</g>
<g filter="url(#filter11_f_642_1002)">
<ellipse cx="781.358" cy="2732.63" rx="110.228" ry="103.496" transform="rotate(-0.0720347 781.358 2732.63)" fill="url(#paint13_diamond_642_1002)"/>
</g>
<path d="M1392.02 2273.49C1436.56 2369.76 1401.05 2492.14 1307.34 2612.27C1213.65 2732.37 1061.87 2850.08 874.212 2936.91C686.551 3023.74 498.58 3063.23 346.389 3056.89C194.169 3050.56 77.8951 2998.4 33.3522 2902.13C-11.1908 2805.86 24.3244 2683.48 118.033 2563.35C211.724 2443.25 363.498 2325.54 551.16 2238.71C738.821 2151.88 926.792 2112.4 1078.98 2118.73C1231.2 2125.06 1347.48 2177.22 1392.02 2273.49Z" stroke="url(#paint14_linear_642_1002)"/>
<path d="M1168 2621.49C1162.12 2622.18 1158.73 2622.82 1156.66 2624.93C1154.22 2627.41 1153.64 2631.94 1153 2641C1152.34 2631.6 1151.74 2627.1 1149.06 2624.68C1146.99 2622.79 1143.63 2622.18 1138 2621.51C1143.86 2620.82 1147.27 2620.18 1149.32 2618.09C1151.78 2615.59 1152.36 2611.09 1153 2602C1153.6 2610.37 1154.13 2614.84 1156.12 2617.43C1158.11 2620.01 1161.58 2620.74 1168 2621.49Z" fill="white" fill-opacity="0.7"/>
<path d="M1168 2621.49C1162.12 2622.18 1158.73 2622.82 1156.66 2624.93C1154.22 2627.41 1153.64 2631.94 1153 2641C1152.34 2631.6 1151.74 2627.1 1149.06 2624.68C1146.99 2622.79 1143.63 2622.18 1138 2621.51C1143.86 2620.82 1147.27 2620.18 1149.32 2618.09C1151.78 2615.59 1152.36 2611.09 1153 2602C1153.6 2610.37 1154.13 2614.84 1156.12 2617.43C1158.11 2620.01 1161.58 2620.74 1168 2621.49Z" fill="white" fill-opacity="0.7"/>
<path d="M1396 2486.49C1389.92 2487.08 1386.43 2487.62 1384.28 2489.4C1381.76 2491.5 1381.16 2495.33 1380.5 2503C1379.81 2495.05 1379.2 2491.24 1376.43 2489.19C1374.29 2487.59 1370.82 2487.08 1365 2486.51C1371.06 2485.92 1374.57 2485.38 1376.7 2483.62C1379.24 2481.5 1379.84 2477.69 1380.5 2470C1381.12 2477.08 1381.67 2480.87 1383.73 2483.05C1385.78 2485.24 1389.37 2485.85 1396 2486.49Z" fill="white"/>
<path d="M1227 2711.99C1223.08 2712.42 1220.82 2712.81 1219.44 2714.11C1217.81 2715.64 1217.43 2718.42 1217 2724C1216.56 2718.22 1216.16 2715.45 1214.38 2713.96C1212.99 2712.8 1210.75 2712.42 1207 2712.01C1210.91 2711.58 1213.18 2711.19 1214.55 2709.9C1216.19 2708.36 1216.57 2705.59 1217 2700C1217.4 2705.15 1217.76 2707.9 1219.08 2709.49C1220.41 2711.08 1222.72 2711.53 1227 2711.99Z" fill="white" fill-opacity="0.5"/>
<path d="M1227 2711.99C1223.08 2712.42 1220.82 2712.81 1219.44 2714.11C1217.81 2715.64 1217.43 2718.42 1217 2724C1216.56 2718.22 1216.16 2715.45 1214.38 2713.96C1212.99 2712.8 1210.75 2712.42 1207 2712.01C1210.91 2711.58 1213.18 2711.19 1214.55 2709.9C1216.19 2708.36 1216.57 2705.59 1217 2700C1217.4 2705.15 1217.76 2707.9 1219.08 2709.49C1220.41 2711.08 1222.72 2711.53 1227 2711.99Z" fill="white" fill-opacity="0.5"/>
<path d="M1408 2048.99C1402.9 2049.52 1399.97 2050.02 1398.17 2051.64C1396.06 2053.54 1395.56 2057.03 1395 2064C1394.43 2056.77 1393.91 2053.31 1391.59 2051.45C1389.79 2049.99 1386.88 2049.52 1382 2049.01C1387.08 2048.48 1390.03 2047.98 1391.81 2046.38C1393.94 2044.46 1394.44 2040.99 1395 2034C1395.52 2040.44 1395.98 2043.88 1397.71 2045.87C1399.43 2047.86 1402.44 2048.41 1408 2048.99Z" fill="white" fill-opacity="0.6"/>
<path d="M620.849 2213.62C612.248 2214.39 607.306 2215.1 604.273 2217.44C600.707 2220.18 599.863 2225.21 598.924 2235.26C597.955 2224.84 597.079 2219.85 593.17 2217.16C590.136 2215.07 585.226 2214.39 577 2213.65C585.57 2212.88 590.542 2212.17 593.545 2209.85C597.142 2207.08 597.986 2202.08 598.924 2192C599.8 2201.28 600.582 2206.25 603.491 2209.11C606.399 2211.98 611.466 2212.78 620.849 2213.62Z" fill="white"/>
<path d="M1323 2177.99C1316.13 2178.66 1312.19 2179.29 1309.77 2181.34C1306.92 2183.76 1306.25 2188.17 1305.5 2197C1304.73 2187.85 1304.03 2183.46 1300.91 2181.1C1298.49 2179.26 1294.57 2178.66 1288 2178.01C1294.84 2177.34 1298.81 2176.71 1301.21 2174.68C1304.08 2172.24 1304.75 2167.86 1305.5 2159C1306.2 2167.15 1306.82 2171.51 1309.14 2174.03C1311.47 2176.55 1315.51 2177.26 1323 2177.99Z" fill="white"/>
<path d="M1059.91 2333.9C1055.03 2334.54 1052.22 2335.13 1050.5 2337.07C1048.47 2339.34 1047.99 2343.51 1047.46 2351.83C1046.91 2343.2 1046.41 2339.06 1044.19 2336.84C1042.46 2335.1 1039.67 2334.54 1035 2333.93C1039.87 2333.29 1042.69 2332.7 1044.4 2330.79C1046.44 2328.49 1046.92 2324.35 1047.46 2316C1047.95 2323.69 1048.4 2327.8 1050.05 2330.17C1051.7 2332.55 1054.58 2333.21 1059.91 2333.9Z" fill="white" fill-opacity="0.7"/>
<path d="M1059.91 2333.9C1055.03 2334.54 1052.22 2335.13 1050.5 2337.07C1048.47 2339.34 1047.99 2343.51 1047.46 2351.83C1046.91 2343.2 1046.41 2339.06 1044.19 2336.84C1042.46 2335.1 1039.67 2334.54 1035 2333.93C1039.87 2333.29 1042.69 2332.7 1044.4 2330.79C1046.44 2328.49 1046.92 2324.35 1047.46 2316C1047.95 2323.69 1048.4 2327.8 1050.05 2330.17C1051.7 2332.55 1054.58 2333.21 1059.91 2333.9Z" fill="white" fill-opacity="0.7"/>
</g>
<g opacity="0.5">
<path opacity="0.0344828" d="M842.65 3793.99C849.132 3790.77 854.666 3784.43 859.233 3775.13C863.805 3765.83 867.372 3753.63 869.926 3738.85C875.033 3709.28 876.05 3669.6 873.118 3622.55C867.254 3528.47 845.619 3405.18 809.589 3275C773.558 3144.82 729.971 3032.45 688.641 2956.02C667.972 2917.79 647.893 2888.6 629.636 2870.65C620.507 2861.68 611.869 2855.56 603.876 2852.5C595.89 2849.45 588.611 2849.48 582.129 2852.71C575.647 2855.93 570.113 2862.27 565.546 2871.57C560.974 2880.87 557.407 2893.07 554.853 2907.85C549.746 2937.42 548.729 2977.1 551.661 3024.15C557.525 3118.23 579.16 3241.52 615.19 3371.7C651.221 3501.88 694.808 3614.25 736.138 3690.68C756.807 3728.91 776.886 3758.1 795.143 3776.04C804.272 3785.02 812.91 3791.14 820.903 3794.2C828.889 3797.25 836.168 3797.22 842.65 3793.99Z" stroke="#5F257C" stroke-width="2"/>
<path opacity="0.0689655" d="M882.258 3774.99C888.556 3771.14 893.653 3764.31 897.552 3754.68C901.453 3745.05 904.125 3732.66 905.582 3717.83C908.496 3688.18 906.529 3648.96 900.032 3602.9C887.041 3510.78 855.969 3391.49 809.884 3266.88C763.798 3142.26 711.447 3035.98 664.078 2964.88C640.389 2929.32 617.975 2902.61 598.244 2886.79C588.379 2878.89 579.221 2873.73 570.944 2871.54C562.674 2869.35 555.339 2870.12 549.041 2873.97C542.743 2877.82 537.645 2884.65 533.747 2894.28C529.846 2903.92 527.174 2916.3 525.717 2931.13C522.803 2960.79 524.77 3000 531.267 3046.06C544.258 3138.18 575.33 3257.47 621.415 3382.08C667.5 3506.7 719.851 3612.98 767.221 3684.08C790.91 3719.64 813.324 3746.35 833.054 3762.17C842.92 3770.08 852.077 3775.23 860.355 3777.42C868.625 3779.61 875.96 3778.84 882.258 3774.99Z" stroke="#5F257C" stroke-width="2"/>
<path opacity="0.103448" d="M920.597 3752.56C932.733 3743.65 939.088 3723.44 939.789 3693.82C940.488 3664.3 935.554 3625.86 925.542 3581.13C905.522 3491.67 865.25 3377.29 809.461 3259.19C753.673 3141.09 692.957 3041.7 639.91 2976.48C613.381 2943.86 588.804 2919.83 567.75 2906.26C546.625 2892.65 529.36 2889.76 517.225 2898.67C505.09 2907.57 498.734 2927.78 498.033 2957.4C497.334 2986.92 502.268 3025.36 512.28 3070.1C532.301 3159.55 572.572 3273.94 628.361 3392.03C684.15 3510.13 744.865 3609.52 797.913 3674.75C824.442 3707.37 849.019 3731.4 870.073 3744.96C891.197 3758.57 908.462 3761.46 920.597 3752.56Z" stroke="#5F257C" stroke-width="2"/>
<path opacity="0.137931" d="M957.399 3726.88C968.966 3716.85 973.835 3696.26 972.31 3667.01C970.789 3637.85 962.926 3600.47 949.475 3557.41C922.579 3471.3 873.415 3362.69 808.348 3252.01C743.28 3141.32 674.664 3049.58 616.342 2990.73C587.176 2961.3 560.623 2940.13 538.406 2928.91C516.123 2917.67 498.513 2916.58 486.947 2926.61C475.38 2936.64 470.51 2957.22 472.036 2986.48C473.557 3015.64 481.42 3053.02 494.871 3096.08C521.767 3182.19 570.931 3290.8 635.998 3401.48C701.065 3512.16 769.682 3603.9 828.004 3662.76C857.17 3692.19 883.723 3713.36 905.94 3724.57C928.223 3735.82 945.832 3736.91 957.399 3726.88Z" stroke="#5F257C" stroke-width="2"/>
<path opacity="0.172414" d="M992.406 3698.15C1003.31 3687.07 1006.66 3666.27 1002.92 3637.61C999.191 3609.03 988.459 3573 971.672 3531.94C938.106 3449.83 880.424 3347.82 806.574 3245.39C732.724 3142.96 656.728 3059.57 593.577 3007.54C561.996 2981.51 533.669 2963.37 510.459 2954.59C487.187 2945.79 469.365 2946.51 458.459 2957.6C447.553 2968.68 444.208 2989.48 447.946 3018.14C451.675 3046.72 462.407 3082.75 479.193 3123.81C512.76 3205.92 570.442 3307.93 644.292 3410.36C718.142 3512.79 794.138 3596.18 857.289 3648.21C888.87 3674.24 917.197 3692.38 940.407 3701.16C963.679 3709.96 981.5 3709.24 992.406 3698.15Z" stroke="#5F257C" stroke-width="2"/>
<path opacity="0.206897" d="M1025.38 3666.62C1035.54 3654.56 1037.33 3633.71 1031.41 3605.86C1025.51 3578.07 1011.99 3543.66 991.993 3504.91C952.012 3427.43 886.252 3332.79 804.181 3239.4C722.111 3146.01 639.315 3071.6 571.815 3026.78C538.059 3004.37 508.175 2989.38 484.148 2983.11C460.063 2976.81 442.165 2979.34 432.007 2991.4C421.848 3003.46 420.054 3024.31 425.975 3052.16C431.882 3079.94 445.401 3114.35 465.395 3153.1C505.376 3230.59 571.136 3325.22 653.207 3418.61C735.277 3512 818.073 3586.42 885.573 3631.24C919.329 3653.65 949.213 3668.63 973.24 3674.91C997.325 3681.2 1015.22 3678.67 1025.38 3666.62Z" stroke="#5F257C" stroke-width="2"/>
<path opacity="0.241379" d="M1056.1 3632.51C1065.43 3619.57 1065.66 3598.83 1057.6 3572C1049.56 3545.22 1033.36 3512.69 1010.31 3476.55C964.217 3404.28 890.879 3317.74 801.213 3234.09C711.547 3150.45 622.581 3085.58 551.246 3048.32C515.573 3029.68 484.358 3017.98 459.697 3014.25C434.983 3010.51 417.143 3014.83 407.814 3027.76C398.485 3040.7 398.256 3061.44 406.313 3088.28C414.353 3115.06 430.556 3147.58 453.605 3183.72C499.696 3256 573.033 3342.54 662.7 3426.18C752.366 3509.82 841.332 3574.69 912.667 3611.96C948.34 3630.59 979.555 3642.3 1004.22 3646.03C1028.93 3649.76 1046.77 3645.45 1056.1 3632.51Z" stroke="#5F257C" stroke-width="2"/>
<path opacity="0.275862" d="M1084.35 3596.11C1092.77 3582.39 1091.43 3561.92 1081.3 3536.3C1071.19 3510.74 1052.43 3480.34 1026.5 3447.08C974.648 3380.57 894.291 3302.78 797.712 3229.52C701.132 3156.26 606.674 3101.43 532.047 3072C494.726 3057.29 462.419 3048.94 437.311 3047.79C412.153 3046.64 394.51 3052.71 386.084 3066.43C377.659 3080.15 378.997 3100.62 389.129 3126.24C399.241 3151.8 418.003 3182.2 443.932 3215.46C495.782 3281.97 576.139 3359.76 672.718 3433.02C769.298 3506.28 863.756 3561.11 938.383 3590.54C975.704 3605.25 1008.01 3613.6 1033.12 3614.75C1058.28 3615.9 1075.92 3609.83 1084.35 3596.11Z" stroke="#5F257C" stroke-width="2"/>
<path opacity="0.310345" d="M1109.94 3557.69C1117.39 3543.3 1114.5 3523.26 1102.37 3499.05C1090.26 3474.89 1069.08 3446.86 1040.47 3416.73C983.259 3356.48 896.494 3288.04 793.736 3225.72C690.978 3163.4 591.745 3119.03 514.394 3097.66C475.711 3086.97 442.556 3082.06 417.191 3083.49C391.78 3084.93 374.468 3092.72 367.014 3107.11C359.56 3121.5 362.455 3141.54 374.584 3165.75C386.69 3189.91 407.87 3217.94 436.482 3248.07C493.695 3308.32 580.46 3376.76 683.218 3439.08C785.976 3501.4 885.209 3545.77 962.561 3567.14C1001.24 3577.83 1034.4 3582.75 1059.76 3581.31C1085.17 3579.87 1102.49 3572.08 1109.94 3557.69Z" stroke="#5F257C" stroke-width="2"/>
<path opacity="0.344828" d="M1132.71 3517.57C1139.13 3502.62 1134.7 3483.16 1120.67 3460.54C1106.66 3437.97 1083.22 3412.51 1052.15 3385.74C990.004 3332.22 897.491 3273.65 789.336 3222.74C681.181 3171.83 577.929 3138.25 498.441 3125.1C458.69 3118.53 424.939 3117.07 399.511 3121.08C374.037 3125.1 357.19 3134.54 350.767 3149.49C344.344 3164.45 348.772 3183.91 362.806 3206.52C376.815 3229.09 400.251 3254.56 431.328 3281.32C493.471 3334.84 585.984 3393.42 694.139 3444.33C802.294 3495.24 905.546 3528.81 985.034 3541.96C1024.79 3548.54 1058.54 3549.99 1083.96 3545.98C1109.44 3541.97 1126.28 3532.52 1132.71 3517.57Z" stroke="#5F257C" stroke-width="2"/>
<path opacity="0.37931" d="M1152.5 3476.04C1157.84 3460.65 1151.92 3441.92 1136.09 3421.07C1120.28 3400.26 1094.77 3377.56 1061.46 3354.36C994.861 3307.97 897.303 3259.71 784.574 3220.6C671.845 3181.49 565.358 3158.96 484.337 3154.13C443.82 3151.72 409.73 3153.74 384.43 3160.29C359.086 3166.85 342.835 3177.89 337.494 3193.28C332.153 3208.68 338.079 3227.4 353.912 3248.25C369.717 3269.07 395.232 3291.76 428.537 3314.96C495.137 3361.36 592.695 3409.62 705.424 3448.73C818.153 3487.84 924.639 3510.37 1005.66 3515.19C1046.18 3517.61 1080.27 3515.59 1105.57 3509.04C1130.91 3502.47 1147.16 3491.44 1152.5 3476.04Z" stroke="#5F257C" stroke-width="2"/>
<path opacity="0.413793" d="M1169.2 3433.45C1173.42 3417.73 1166.04 3399.88 1148.53 3380.95C1131.05 3362.05 1103.65 3342.29 1068.37 3322.83C997.818 3283.93 895.957 3246.34 779.511 3219.33C663.065 3192.31 554.154 3181 472.216 3184.54C431.24 3186.31 397.069 3191.78 372.09 3200.83C347.067 3209.89 331.537 3222.43 327.321 3238.14C323.104 3253.86 330.48 3271.71 347.993 3290.64C365.475 3309.54 392.874 3329.3 428.156 3348.75C498.706 3387.66 600.567 3425.25 717.013 3452.26C833.458 3479.28 942.37 3490.59 1024.31 3487.05C1065.28 3485.28 1099.45 3479.81 1124.43 3470.76C1149.46 3461.7 1164.99 3449.16 1169.2 3433.45Z" stroke="#5F257C" stroke-width="2"/>
<path opacity="0.448276" d="M1182.7 3390.1C1185.76 3374.19 1176.99 3357.35 1157.93 3340.49C1138.91 3323.65 1109.83 3306.98 1072.84 3291.41C998.876 3260.28 893.486 3233.66 774.209 3218.95C654.932 3204.24 544.424 3204.23 462.192 3216.1C421.068 3222.03 387.075 3230.93 362.606 3242.4C338.092 3253.89 323.406 3267.84 320.345 3283.75C317.285 3299.66 326.053 3316.5 345.114 3333.37C364.14 3350.2 393.217 3366.88 430.206 3382.44C504.171 3413.57 609.561 3440.2 728.838 3454.91C848.115 3469.62 958.623 3469.62 1040.86 3457.76C1081.98 3451.82 1115.97 3442.93 1140.44 3431.46C1164.95 3419.96 1179.64 3406.02 1182.7 3390.1Z" stroke="#5F257C" stroke-width="2"/>
<path opacity="0.482759" d="M1192.92 3346.36C1194.8 3330.37 1184.71 3314.67 1164.24 3300C1143.82 3285.35 1113.28 3271.89 1074.87 3260.33C998.051 3237.22 889.934 3221.76 768.732 3219.47C647.531 3217.17 536.266 3228.47 454.365 3248.58C413.406 3258.64 379.85 3270.88 356.077 3284.69C332.257 3298.53 318.527 3313.77 316.646 3329.76C314.766 3345.75 324.856 3361.44 345.322 3376.12C365.748 3390.77 396.281 3404.22 434.697 3415.78C511.515 3438.9 619.632 3454.35 740.833 3456.65C862.035 3458.95 973.299 3447.64 1055.2 3427.54C1096.16 3417.48 1129.72 3405.24 1153.49 3391.43C1177.31 3377.59 1191.04 3362.34 1192.92 3346.36Z" stroke="#5F257C" stroke-width="2"/>
<path opacity="0.517241" d="M1199.81 3302.54C1200.49 3286.61 1189.16 3272.17 1167.44 3259.8C1145.77 3247.45 1114.01 3237.31 1074.46 3229.85C995.377 3214.93 885.355 3210.75 763.151 3220.89C640.948 3231.03 529.772 3253.55 448.824 3281.75C408.342 3295.85 375.477 3311.35 352.58 3327.4C329.634 3343.47 316.968 3359.9 316.28 3375.84C315.591 3391.77 326.925 3406.21 348.643 3418.58C370.314 3430.93 402.072 3441.07 441.622 3448.53C520.709 3463.45 630.732 3467.63 752.935 3457.49C875.139 3447.35 986.314 3424.83 1067.26 3396.63C1107.74 3382.53 1140.61 3367.03 1163.51 3350.98C1186.45 3334.91 1199.12 3318.48 1199.81 3302.54Z" stroke="#5F257C" stroke-width="2"/>
<path opacity="0.551724" d="M1203.33 3259.01C1202.83 3243.25 1190.34 3230.18 1167.53 3220.2C1144.78 3210.25 1112.04 3203.5 1071.65 3200.2C990.9 3193.58 879.809 3200.72 757.533 3223.22C635.257 3245.71 525.017 3279.28 445.637 3315.36C405.94 3333.4 374.016 3352.04 352.169 3370.19C330.27 3388.4 318.765 3405.88 319.273 3421.64C319.78 3437.39 332.269 3450.46 355.075 3460.44C377.827 3470.39 410.568 3477.14 450.953 3480.45C531.708 3487.06 642.799 3479.92 765.075 3457.42C887.351 3434.93 997.591 3401.36 1076.97 3365.28C1116.67 3347.24 1148.59 3328.6 1170.44 3310.45C1192.34 3292.25 1203.84 3274.76 1203.33 3259.01Z" stroke="#5F257C" stroke-width="2"/>
<path opacity="0.586207" d="M1203.5 3216.08C1201.8 3200.63 1188.26 3189.02 1164.54 3181.52C1140.88 3174.04 1107.4 3170.74 1066.49 3171.61C984.679 3173.35 873.364 3191.76 751.946 3226.44C630.528 3261.12 522.061 3305.48 444.854 3349.16C406.244 3371 375.503 3392.64 354.873 3412.77C334.188 3432.96 323.934 3451.36 325.63 3466.82C327.326 3482.28 340.873 3493.88 364.596 3501.38C388.256 3508.87 421.732 3512.17 462.644 3511.29C544.452 3509.55 655.767 3491.15 777.185 3456.47C898.603 3421.79 1007.07 3377.42 1084.28 3333.74C1122.89 3311.9 1153.63 3290.26 1174.26 3270.13C1194.94 3249.94 1205.2 3231.54 1203.5 3216.08Z" stroke="#5F257C" stroke-width="2"/>
<path opacity="0.62069" d="M1200.33 3174.11C1197.46 3159.07 1182.96 3149.02 1158.5 3144.05C1134.11 3139.1 1100.15 3139.27 1059.02 3144.32C976.785 3154.4 866.093 3183.93 746.457 3230.53C626.821 3277.13 520.954 3331.96 446.507 3382.91C409.277 3408.38 379.955 3432.86 360.698 3454.82C341.384 3476.84 332.459 3496.01 335.328 3511.05C338.196 3526.09 352.695 3536.14 377.157 3541.11C401.546 3546.07 435.503 3545.89 476.63 3540.85C558.87 3530.76 669.561 3501.23 789.197 3454.63C908.834 3408.03 1014.7 3353.21 1089.15 3302.26C1126.38 3276.78 1155.7 3252.31 1174.96 3230.35C1194.27 3208.33 1203.2 3189.15 1200.33 3174.11Z" stroke="#5F257C" stroke-width="2"/>
<path opacity="0.655172" d="M1193.86 3133.42C1189.84 3118.92 1174.5 3110.49 1149.49 3108.09C1124.56 3105.71 1090.38 3109.35 1049.35 3118.53C967.301 3136.89 858.076 3177.32 741.132 3235.48C624.188 3293.65 521.726 3358.52 450.607 3416.35C415.041 3445.27 387.359 3472.4 369.623 3496.01C351.828 3519.7 344.301 3539.5 348.315 3554.01C352.33 3568.51 367.671 3576.94 392.686 3579.34C417.619 3581.73 451.798 3578.08 492.828 3568.9C574.874 3550.55 684.099 3510.12 801.042 3451.95C917.986 3393.78 1020.45 3328.91 1091.57 3271.08C1127.13 3242.16 1154.82 3215.03 1172.55 3191.42C1190.35 3167.73 1197.87 3147.93 1193.86 3133.42Z" stroke="#5F257C" stroke-width="2"/>
<path opacity="0.689655" d="M1184.18 3094.33C1181.61 3087.41 1176.33 3082.26 1168.48 3078.85C1160.63 3075.45 1150.25 3073.82 1137.6 3073.92C1112.32 3074.12 1078.18 3081.21 1037.55 3094.46C956.328 3120.94 849.4 3171.96 736.04 3241.26C622.679 3310.55 524.402 3384.97 457.151 3449.24C423.52 3481.39 397.69 3510.95 381.61 3536.04C373.57 3548.59 367.998 3559.97 365.092 3569.95C362.188 3579.93 361.963 3588.44 364.523 3595.36C367.083 3602.29 372.363 3607.44 380.214 3610.84C388.071 3614.24 398.452 3615.87 411.095 3615.77C436.381 3615.57 470.523 3608.48 511.144 3595.24C592.37 3568.75 699.298 3517.73 812.659 3448.44C926.02 3379.14 1024.3 3304.73 1091.55 3240.45C1125.18 3208.31 1151.01 3178.74 1167.09 3153.65C1175.13 3141.1 1180.7 3129.73 1183.61 3119.74C1186.51 3109.77 1186.74 3101.25 1184.18 3094.33Z" stroke="#5F257C" stroke-width="2"/>
<path opacity="0.724138" d="M1171.37 3057.14C1168.28 3050.59 1162.58 3046.06 1154.42 3043.51C1146.25 3040.96 1135.68 3040.42 1122.95 3041.81C1097.51 3044.59 1063.66 3055.07 1023.76 3072.28C943.971 3106.7 840.155 3167.93 731.24 3247.82C622.325 3327.71 528.982 3411.11 466.112 3481.34C434.672 3516.46 410.892 3548.25 396.59 3574.63C389.439 3587.81 384.686 3599.6 382.512 3609.74C380.34 3619.87 380.758 3628.27 383.85 3634.82C386.943 3641.36 392.638 3645.9 400.798 3648.45C408.966 3651 419.541 3651.54 432.266 3650.15C457.714 3647.37 491.558 3636.88 531.459 3619.67C611.248 3585.26 715.064 3524.03 823.979 3444.14C932.894 3364.24 1026.24 3280.85 1089.11 3210.61C1120.55 3175.49 1144.33 3143.71 1158.63 3117.33C1165.78 3104.14 1170.53 3092.36 1172.71 3082.22C1174.88 3072.09 1174.46 3063.69 1171.37 3057.14Z" stroke="#5F257C" stroke-width="2"/>
<path opacity="0.758621" d="M1155.56 3022.15C1151.97 3016.02 1145.9 3012.14 1137.49 3010.46C1129.08 3008.78 1118.39 3009.33 1105.68 3012.01C1080.26 3017.35 1046.97 3031.15 1008.09 3052.19C930.351 3094.27 830.438 3165.24 726.798 3255.13C623.157 3345.01 535.459 3436.75 477.45 3512.41C448.441 3550.24 426.891 3584 414.478 3611.47C408.27 3625.2 404.373 3637.3 402.948 3647.52C401.524 3657.72 402.58 3665.95 406.178 3672.07C409.777 3678.19 415.842 3682.08 424.252 3683.75C432.668 3685.43 443.357 3684.88 456.066 3682.21C481.482 3676.87 514.77 3663.07 553.649 3642.03C631.392 3599.94 731.306 3528.98 834.946 3439.09C938.586 3349.21 1026.28 3257.46 1084.29 3181.81C1113.3 3143.98 1134.85 3110.21 1147.27 3082.75C1153.47 3069.02 1157.37 3056.91 1158.8 3046.7C1160.22 3036.5 1159.16 3028.27 1155.56 3022.15Z" stroke="#5F257C" stroke-width="2"/>
<path opacity="0.793103" d="M1136.91 2989.63C1132.83 2983.97 1126.44 2980.77 1117.85 2979.97C1109.25 2979.18 1098.52 2980.81 1085.93 2984.75C1060.74 2992.62 1028.26 3009.62 990.699 3034.34C915.593 3083.77 820.343 3163.94 722.767 3263.13C625.192 3362.32 543.806 3461.72 491.1 3542.22C464.742 3582.47 445.588 3617.96 435.158 3646.3C429.942 3660.47 426.929 3672.8 426.265 3683.01C425.6 3693.21 427.284 3701.2 431.359 3706.86C435.434 3712.51 441.824 3715.72 450.419 3716.51C459.018 3717.3 469.741 3715.67 482.337 3711.73C507.527 3703.86 540.005 3686.86 577.565 3662.14C652.671 3612.71 747.921 3532.54 845.497 3433.35C943.073 3334.16 1024.46 3234.76 1077.16 3154.27C1103.52 3114.01 1122.68 3078.52 1133.11 3050.19C1138.32 3036.01 1141.33 3023.69 1142 3013.47C1142.66 3003.27 1140.98 2995.28 1136.91 2989.63Z" stroke="#5F257C" stroke-width="2"/>
<path opacity="0.827586" d="M1115.56 2959.83C1111.04 2954.69 1104.38 2952.18 1095.66 2952.28C1086.94 2952.38 1076.27 2955.09 1063.88 2960.25C1039.11 2970.59 1007.69 2990.67 971.733 3018.88C899.837 3075.28 809.976 3164.04 719.207 3271.78C628.438 3379.52 553.985 3485.81 506.984 3570.54C483.479 3612.92 466.866 3649.85 458.5 3678.85C454.316 3693.36 452.211 3705.82 452.311 3715.95C452.411 3726.08 454.71 3733.77 459.228 3738.91C463.746 3744.05 470.412 3746.56 479.127 3746.46C487.846 3746.37 498.52 3743.66 510.908 3738.49C535.678 3728.16 567.1 3708.07 603.054 3679.87C674.951 3623.46 764.812 3534.71 855.581 3426.96C946.349 3319.22 1020.8 3212.93 1067.8 3128.2C1091.31 3085.83 1107.92 3048.89 1116.29 3019.89C1120.47 3005.39 1122.58 2992.93 1122.48 2982.8C1122.38 2972.67 1120.08 2964.97 1115.56 2959.83Z" stroke="#5F257C" stroke-width="2"/>
<path opacity="0.862069" d="M1091.71 2933.01C1086.79 2928.41 1079.89 2926.62 1071.13 2927.61C1062.35 2928.6 1051.81 2932.36 1039.73 2938.72C1015.56 2951.44 985.438 2974.45 951.363 3005.93C883.223 3068.87 799.436 3165.54 716.165 3281.02C632.895 3396.49 565.942 3508.87 525.003 3597.19C504.53 3641.35 490.587 3679.46 484.348 3708.9C481.227 3723.62 480.048 3736.12 480.912 3746.1C481.776 3756.07 484.67 3763.41 489.596 3768C494.522 3772.6 501.415 3774.39 510.184 3773.4C518.955 3772.41 529.499 3768.65 541.583 3762.29C565.747 3749.57 595.871 3726.56 629.947 3695.08C698.086 3632.14 781.873 3535.47 865.144 3419.99C948.414 3304.51 1015.37 3192.14 1056.31 3103.82C1076.78 3059.65 1090.72 3021.55 1096.96 2992.11C1100.08 2977.39 1101.26 2964.89 1100.4 2954.91C1099.53 2944.94 1096.64 2937.6 1091.71 2933.01Z" stroke="#5F257C" stroke-width="2"/>
<path opacity="0.896552" d="M1065.57 2909.36C1060.28 2905.34 1053.21 2904.28 1044.45 2906.15C1035.7 2908.02 1025.36 2912.8 1013.67 2920.31C990.302 2935.32 961.704 2961.08 929.767 2995.59C865.905 3064.6 788.829 3168.45 713.691 3290.78C638.554 3413.11 579.61 3530.71 545.046 3621.95C527.762 3667.57 516.593 3706.55 512.53 3736.21C510.498 3751.04 510.251 3763.48 511.873 3773.22C513.495 3782.97 516.961 3789.89 522.258 3793.91C527.555 3797.93 534.623 3798.99 543.379 3797.12C552.135 3795.25 562.469 3790.46 574.158 3782.96C597.529 3767.95 626.127 3742.19 658.064 3707.68C721.926 3638.67 799.002 3534.82 874.14 3412.49C949.277 3290.16 1008.22 3172.56 1042.78 3081.32C1060.07 3035.7 1071.24 2996.72 1075.3 2967.06C1077.33 2952.23 1077.58 2939.79 1075.96 2930.05C1074.34 2920.3 1070.87 2913.37 1065.57 2909.36Z" stroke="#5F257C" stroke-width="2"/>
<path opacity="0.931035" d="M1037.36 2889.08C1031.74 2885.66 1024.54 2885.34 1015.87 2888.08C1007.19 2890.82 997.148 2896.59 985.945 2905.19C963.543 2922.37 936.691 2950.69 907.136 2987.97C848.037 3062.51 778.259 3172.75 711.827 3301C645.394 3429.25 594.909 3551.19 566.984 3644.64C553.019 3691.38 544.712 3730.94 542.855 3760.59C541.926 3775.41 542.616 3787.7 544.983 3797.14C547.351 3806.58 551.362 3813.04 556.99 3816.46C562.618 3819.87 569.809 3820.2 578.485 3817.46C587.161 3814.72 597.205 3808.94 608.409 3800.35C630.81 3783.16 657.663 3754.85 687.218 3717.57C746.317 3643.02 816.094 3532.78 882.527 3404.53C948.96 3276.28 999.445 3154.34 1027.37 3060.89C1041.33 3014.15 1049.64 2974.59 1051.5 2944.94C1052.43 2930.12 1051.74 2917.83 1049.37 2908.39C1047 2898.96 1042.99 2892.49 1037.36 2889.08Z" stroke="#5F257C" stroke-width="2"/>
<path opacity="0.965517" d="M1007.32 2872.32C1001.4 2869.54 994.143 2869.95 985.613 2873.54C977.084 2877.13 967.406 2883.85 956.774 2893.46C935.513 2912.69 910.611 2943.35 883.663 2983.11C829.778 3062.63 767.83 3178.42 710.608 3311.61C653.386 3444.81 611.745 3570.15 590.671 3665.12C580.132 3712.61 574.749 3752.45 575.114 3781.86C575.296 3796.57 576.916 3808.6 580.011 3817.66C583.106 3826.72 587.631 3832.68 593.55 3835.47C599.469 3838.26 606.731 3837.84 615.26 3834.26C623.789 3830.67 633.467 3823.95 644.1 3814.33C665.36 3795.1 690.263 3764.45 717.21 3724.68C771.096 3645.16 833.043 3529.38 890.265 3396.18C947.488 3262.98 989.129 3137.64 1010.2 3042.68C1020.74 2995.19 1026.12 2955.35 1025.76 2925.94C1025.58 2911.23 1023.96 2899.19 1020.86 2890.13C1017.77 2881.07 1013.24 2875.11 1007.32 2872.32Z" stroke="#5F257C" stroke-width="2"/>
<path d="M975.709 2859.24C969.542 2857.1 962.262 2858.25 953.944 2862.66C945.628 2867.07 936.39 2874.68 926.409 2885.25C906.453 2906.37 883.69 2939.13 859.555 2981.08C811.293 3064.97 757.648 3185.42 710.072 3322.55C662.496 3459.67 630.015 3587.47 615.954 3683.22C608.922 3731.1 606.504 3770.92 609.087 3799.87C610.379 3814.34 612.918 3826.04 616.716 3834.65C620.516 3843.27 625.52 3848.68 631.687 3850.82C637.855 3852.96 645.134 3851.81 653.452 3847.4C661.768 3842.99 671.006 3835.38 680.987 3824.81C700.944 3803.68 723.707 3770.92 747.841 3728.97C796.103 3645.09 849.749 3524.64 897.325 3387.51C944.9 3250.38 977.381 3122.59 991.442 3026.84C998.474 2978.96 1000.89 2939.14 998.309 2910.19C997.017 2895.71 994.479 2884.02 990.68 2875.4C986.881 2866.79 981.876 2861.38 975.709 2859.24Z" stroke="#5F257C" stroke-width="2"/>
</g>
<path d="M1333 4319.99C1326.92 4320.63 1323.43 4321.22 1321.28 4323.17C1318.76 4325.45 1318.16 4329.64 1317.5 4338C1316.81 4329.33 1316.2 4325.17 1313.43 4322.94C1311.29 4321.19 1307.82 4320.63 1302 4320.01C1308.06 4319.37 1311.57 4318.78 1313.7 4316.86C1316.24 4314.55 1316.84 4310.39 1317.5 4302C1318.12 4309.72 1318.67 4313.85 1320.73 4316.24C1322.78 4318.63 1326.37 4319.29 1333 4319.99Z" fill="white"/>
<path d="M381.957 4186.99C375.885 4187.63 372.396 4188.22 370.254 4190.17C367.737 4192.45 367.141 4196.64 366.479 4205C365.794 4196.33 365.176 4192.17 362.416 4189.94C360.274 4188.19 356.807 4187.63 351 4187.01C357.05 4186.37 360.561 4185.78 362.681 4183.86C365.22 4181.55 365.816 4177.39 366.479 4169C367.097 4176.72 367.649 4180.85 369.702 4183.24C371.756 4185.63 375.333 4186.29 381.957 4186.99Z" fill="white"/>
<path d="M456 4337.99C452.469 4338.35 450.441 4338.68 449.195 4339.76C447.732 4341.03 447.385 4343.35 447 4348C446.602 4343.18 446.243 4340.87 444.638 4339.63C443.392 4338.66 441.377 4338.35 438 4338.01C441.518 4337.65 443.559 4337.32 444.792 4336.25C446.268 4334.97 446.615 4332.66 447 4328C447.359 4332.29 447.68 4334.59 448.874 4335.91C450.068 4337.24 452.148 4337.61 456 4337.99Z" fill="white"/>
<path d="M259.838 4376.87C250.651 4377.72 245.373 4378.5 242.132 4381.09C238.323 4384.12 237.421 4389.67 236.419 4400.77C235.384 4389.27 234.448 4383.75 230.272 4380.79C227.031 4378.47 221.786 4377.72 213 4376.9C222.154 4376.05 227.466 4375.27 230.673 4372.72C234.515 4369.65 235.417 4364.14 236.419 4353C237.355 4363.25 238.19 4368.73 241.297 4371.9C244.404 4375.07 249.816 4375.95 259.838 4376.87Z" fill="white"/>
<path d="M1052 4269.99C1045.92 4270.63 1042.43 4271.22 1040.28 4273.17C1037.76 4275.45 1037.16 4279.64 1036.5 4288C1035.81 4279.33 1035.2 4275.17 1032.43 4272.94C1030.29 4271.19 1026.82 4270.63 1021 4270.01C1027.06 4269.37 1030.57 4268.78 1032.7 4266.86C1035.24 4264.55 1035.84 4260.39 1036.5 4252C1037.12 4259.72 1037.67 4263.85 1039.73 4266.24C1041.78 4268.63 1045.37 4269.29 1052 4269.99Z" fill="white"/>
<path d="M752 4251.99C745.919 4252.63 742.426 4253.22 740.281 4255.17C737.76 4257.45 737.163 4261.64 736.5 4270C735.815 4261.33 735.195 4257.17 732.432 4254.94C730.287 4253.19 726.815 4252.63 721 4252.01C727.058 4251.37 730.574 4250.78 732.697 4248.86C735.24 4246.55 735.837 4242.39 736.5 4234C737.119 4241.72 737.672 4245.85 739.728 4248.24C741.785 4250.63 745.367 4251.29 752 4251.99Z" fill="white"/>
<path d="M611 4081.99C604.919 4082.63 601.426 4083.22 599.281 4085.17C596.76 4087.45 596.163 4091.64 595.5 4100C594.815 4091.33 594.195 4087.17 591.432 4084.94C589.287 4083.19 585.815 4082.63 580 4082.01C586.058 4081.37 589.574 4080.78 591.697 4078.86C594.24 4076.55 594.837 4072.39 595.5 4064C596.119 4071.72 596.672 4075.85 598.728 4078.24C600.785 4080.63 604.367 4081.29 611 4081.99Z" fill="white"/>
<g filter="url(#filter12_f_642_1002)">
<rect x="-131" y="4554" width="1611" height="547" fill="url(#paint15_linear_642_1002)" fill-opacity="0.6"/>
</g>
<path fill-rule="evenodd" clip-rule="evenodd" d="M1087.64 4757.41C1087.59 4757.53 1087.4 4757.57 1087.23 4757.49C1087.06 4757.41 1086.96 4757.24 1087.02 4757.12C1087.07 4757 1087.26 4756.96 1087.43 4757.05C1087.6 4757.12 1087.7 4757.29 1087.64 4757.41Z" fill="white"/>
<path fill-rule="evenodd" clip-rule="evenodd" d="M1088.61 4758.51C1088.5 4758.62 1088.27 4758.57 1088.12 4758.4C1087.97 4758.23 1087.94 4758 1088.05 4757.89C1088.17 4757.79 1088.39 4757.84 1088.54 4758.01C1088.7 4758.18 1088.73 4758.4 1088.61 4758.51Z" fill="white"/>
<path fill-rule="evenodd" clip-rule="evenodd" d="M1089.56 4759.92C1089.41 4760.02 1089.17 4759.92 1089.02 4759.71C1088.88 4759.49 1088.88 4759.23 1089.02 4759.13C1089.17 4759.02 1089.41 4759.12 1089.56 4759.33C1089.71 4759.55 1089.71 4759.81 1089.56 4759.92Z" fill="white"/>
<path fill-rule="evenodd" clip-rule="evenodd" d="M1090.85 4761.27C1090.72 4761.42 1090.44 4761.38 1090.24 4761.18C1090.03 4760.98 1089.97 4760.7 1090.1 4760.56C1090.23 4760.41 1090.51 4760.45 1090.72 4760.65C1090.93 4760.85 1090.99 4761.13 1090.85 4761.27Z" fill="white"/>
<path fill-rule="evenodd" clip-rule="evenodd" d="M1092.64 4762.06C1092.58 4762.25 1092.31 4762.34 1092.04 4762.26C1091.77 4762.17 1091.59 4761.95 1091.64 4761.76C1091.7 4761.56 1091.97 4761.47 1092.24 4761.56C1092.51 4761.64 1092.69 4761.87 1092.64 4762.06Z" fill="white"/>
<path fill-rule="evenodd" clip-rule="evenodd" d="M1094.6 4762.21C1094.6 4762.41 1094.37 4762.57 1094.09 4762.58C1093.8 4762.58 1093.57 4762.42 1093.57 4762.22C1093.57 4762.02 1093.79 4761.86 1094.08 4761.85C1094.36 4761.85 1094.6 4762.01 1094.6 4762.21Z" fill="white"/>
<path fill-rule="evenodd" clip-rule="evenodd" d="M1096.42 4761.89C1096.45 4762.09 1096.26 4762.29 1095.97 4762.34C1095.7 4762.39 1095.44 4762.27 1095.4 4762.08C1095.37 4761.88 1095.57 4761.67 1095.85 4761.62C1096.13 4761.57 1096.38 4761.69 1096.42 4761.89Z" fill="white"/>
<path d="M496 4730.75C492.469 4731.19 490.441 4731.59 489.195 4732.91C487.732 4734.46 487.385 4737.29 487 4742.96C486.602 4737.08 486.243 4734.26 484.638 4732.75C483.392 4731.57 481.377 4731.19 478 4730.77C481.518 4730.33 483.559 4729.93 484.792 4728.63C486.268 4727.06 486.615 4724.25 487 4718.56C487.359 4723.79 487.68 4726.59 488.874 4728.21C490.068 4729.83 492.148 4730.28 496 4730.75Z" fill="white" fill-opacity="0.5"/>
<path d="M1149 4541.49C1144.29 4541.97 1141.59 4542.41 1139.93 4543.88C1137.98 4545.59 1137.51 4548.73 1137 4555C1136.47 4548.5 1135.99 4545.38 1133.85 4543.7C1132.19 4542.39 1129.5 4541.97 1125 4541.51C1129.69 4541.03 1132.41 4540.59 1134.06 4539.14C1136.02 4537.41 1136.49 4534.29 1137 4528C1137.48 4533.79 1137.91 4536.89 1139.5 4538.68C1141.09 4540.47 1143.86 4540.97 1149 4541.49Z" fill="white" fill-opacity="0.6"/>
<path d="M212 4528.99C208.469 4529.35 206.441 4529.68 205.195 4530.76C203.732 4532.03 203.385 4534.35 203 4539C202.602 4534.18 202.243 4531.87 200.638 4530.63C199.392 4529.66 197.377 4529.35 194 4529.01C197.518 4528.65 199.559 4528.32 200.792 4527.25C202.268 4525.97 202.615 4523.66 203 4519C203.359 4523.29 203.68 4525.59 204.874 4526.91C206.068 4528.24 208.148 4528.61 212 4528.99Z" fill="white" fill-opacity="0.8"/>
<path d="M283 4668.49C280.058 4668.8 278.367 4669.08 277.33 4670C276.11 4671.07 275.821 4673.05 275.5 4677C275.168 4672.9 274.869 4670.94 273.531 4669.89C272.494 4669.06 270.814 4668.8 268 4668.51C270.932 4668.2 272.633 4667.92 273.66 4667.02C274.89 4665.93 275.179 4663.96 275.5 4660C275.8 4663.65 276.067 4665.6 277.062 4666.72C278.057 4667.85 279.79 4668.17 283 4668.49Z" fill="white" fill-opacity="0.7"/>
<path d="M151 4668.49C148.058 4668.8 146.367 4669.08 145.33 4670C144.11 4671.07 143.821 4673.05 143.5 4677C143.168 4672.9 142.869 4670.94 141.531 4669.89C140.494 4669.06 138.814 4668.8 136 4668.51C138.932 4668.2 140.633 4667.92 141.66 4667.02C142.89 4665.93 143.179 4663.96 143.5 4660C143.8 4663.65 144.067 4665.6 145.062 4666.72C146.057 4667.85 147.79 4668.17 151 4668.49Z" fill="white" fill-opacity="0.2"/>
<path d="M375 4518.99C371.469 4519.35 369.441 4519.68 368.195 4520.76C366.732 4522.03 366.385 4524.35 366 4529C365.602 4524.18 365.243 4521.87 363.638 4520.63C362.392 4519.66 360.377 4519.35 357 4519.01C360.518 4518.65 362.559 4518.32 363.792 4517.25C365.268 4515.97 365.615 4513.66 366 4509C366.359 4513.29 366.68 4515.59 367.874 4516.91C369.068 4518.24 371.148 4518.61 375 4518.99Z" fill="white"/>
<path d="M652 4666.99C648.469 4667.35 646.441 4667.68 645.195 4668.76C643.732 4670.03 643.385 4672.35 643 4677C642.602 4672.18 642.243 4669.87 640.638 4668.63C639.392 4667.66 637.377 4667.35 634 4667.01C637.518 4666.65 639.559 4666.32 640.792 4665.25C642.268 4663.97 642.615 4661.66 643 4657C643.359 4661.29 643.68 4663.59 644.874 4664.91C646.068 4666.24 648.148 4666.61 652 4666.99Z" fill="white" fill-opacity="0.7"/>
<path d="M915 4609.99C911.469 4610.35 909.441 4610.68 908.195 4611.76C906.732 4613.03 906.385 4615.35 906 4620C905.602 4615.18 905.243 4612.87 903.638 4611.63C902.392 4610.66 900.377 4610.35 897 4610.01C900.518 4609.65 902.559 4609.32 903.792 4608.25C905.268 4606.97 905.615 4604.66 906 4600C906.359 4604.29 906.68 4606.59 907.874 4607.91C909.068 4609.24 911.148 4609.61 915 4609.99Z" fill="white" fill-opacity="0.8"/>
<path d="M879 4410.99C875.469 4411.35 873.441 4411.68 872.195 4412.76C870.732 4414.03 870.385 4416.35 870 4421C869.602 4416.18 869.243 4413.87 867.638 4412.63C866.392 4411.66 864.377 4411.35 861 4411.01C864.518 4410.65 866.559 4410.32 867.792 4409.25C869.268 4407.97 869.615 4405.66 870 4401C870.359 4405.29 870.68 4407.59 871.874 4408.91C873.068 4410.24 875.148 4410.61 879 4410.99Z" fill="white"/>
<path d="M551 4589.99C547.469 4590.35 545.441 4590.68 544.195 4591.76C542.732 4593.03 542.385 4595.35 542 4600C541.602 4595.18 541.243 4592.87 539.638 4591.63C538.392 4590.66 536.377 4590.35 533 4590.01C536.518 4589.65 538.559 4589.32 539.792 4588.25C541.268 4586.97 541.615 4584.66 542 4580C542.359 4584.29 542.68 4586.59 543.874 4587.91C545.068 4589.24 547.148 4589.61 551 4589.99Z" fill="white" fill-opacity="0.9"/>
<path d="M67.9573 4444.99C61.8851 4445.63 58.3963 4446.22 56.2545 4448.17C53.7372 4450.45 53.1411 4454.64 52.4786 4463C51.7941 4454.33 51.1759 4450.17 48.4158 4447.94C46.2739 4446.19 42.8072 4445.63 37 4445.01C43.0501 4444.37 46.561 4443.78 48.6807 4441.86C51.22 4439.55 51.8162 4435.39 52.4786 4427C53.0969 4434.72 53.6489 4438.85 55.7024 4441.24C57.7559 4443.63 61.333 4444.29 67.9573 4444.99Z" fill="white"/>
<path d="M92 4543.99C85.9194 4544.63 82.4258 4545.22 80.281 4547.17C77.7603 4549.45 77.1633 4553.64 76.5 4562C75.8146 4553.33 75.1954 4549.17 72.4315 4546.94C70.2867 4545.19 66.8153 4544.63 61 4544.01C67.0585 4543.37 70.5742 4542.78 72.6969 4540.86C75.2397 4538.55 75.8367 4534.39 76.5 4526C77.1191 4533.72 77.6719 4537.85 79.7282 4540.24C81.7846 4542.63 85.3666 4543.29 92 4543.99Z" fill="white" fill-opacity="0.7"/>
<path d="M1322 4516.49C1317.68 4516.94 1315.21 4517.35 1313.68 4518.7C1311.89 4520.29 1311.47 4523.19 1311 4529C1310.51 4522.98 1310.07 4520.09 1308.11 4518.54C1306.59 4517.33 1304.13 4516.94 1300 4516.51C1304.3 4516.06 1306.79 4515.65 1308.3 4514.32C1310.11 4512.71 1310.53 4509.83 1311 4504C1311.44 4509.36 1311.83 4512.23 1313.29 4513.89C1314.75 4515.55 1317.29 4516.01 1322 4516.49Z" fill="white"/>
<path d="M991 4633.99C984.919 4634.63 981.426 4635.22 979.281 4637.17C976.76 4639.45 976.163 4643.64 975.5 4652C974.815 4643.33 974.195 4639.17 971.432 4636.94C969.287 4635.19 965.815 4634.63 960 4634.01C966.058 4633.37 969.574 4632.78 971.697 4630.86C974.24 4628.55 974.837 4624.39 975.5 4616C976.119 4623.72 976.672 4627.85 978.728 4630.24C980.785 4632.63 984.367 4633.29 991 4633.99Z" fill="white" fill-opacity="0.5"/>
<path d="M615 4418.99C611.469 4419.35 609.441 4419.68 608.195 4420.76C606.732 4422.03 606.385 4424.35 606 4429C605.602 4424.18 605.243 4421.87 603.638 4420.63C602.392 4419.66 600.377 4419.35 597 4419.01C600.518 4418.65 602.559 4418.32 603.792 4417.25C605.268 4415.97 605.615 4413.66 606 4409C606.359 4413.29 606.68 4415.59 607.874 4416.91C609.068 4418.24 611.148 4418.61 615 4418.99Z" fill="white"/>
<path d="M735 4561.99C728.919 4562.63 725.426 4563.22 723.281 4565.17C720.76 4567.45 720.163 4571.64 719.5 4580C718.815 4571.33 718.195 4567.17 715.432 4564.94C713.287 4563.19 709.815 4562.63 704 4562.01C710.058 4561.37 713.574 4560.78 715.697 4558.86C718.24 4556.55 718.837 4552.39 719.5 4544C720.119 4551.72 720.672 4555.85 722.728 4558.24C724.785 4560.63 728.367 4561.29 735 4561.99Z" fill="white"/>
<path d="M1196 4633.99C1192.47 4634.35 1190.44 4634.68 1189.2 4635.76C1187.73 4637.03 1187.39 4639.35 1187 4644C1186.6 4639.18 1186.24 4636.87 1184.64 4635.63C1183.39 4634.66 1181.38 4634.35 1178 4634.01C1181.52 4633.65 1183.56 4633.32 1184.79 4632.25C1186.27 4630.97 1186.61 4628.66 1187 4624C1187.36 4628.29 1187.68 4630.59 1188.87 4631.91C1190.07 4633.24 1192.15 4633.61 1196 4633.99Z" fill="white" fill-opacity="0.5"/>
<g clip-path="url(#clip3_642_1002)">
<path d="M1244.02 175.45C1239.14 175.975 1236.33 176.458 1234.61 178.053C1232.58 179.922 1232.1 183.344 1231.57 190.188C1231.02 183.092 1230.52 179.691 1228.3 177.864C1226.57 176.437 1223.78 175.975 1219.11 175.471C1223.98 174.946 1226.8 174.463 1228.51 172.889C1230.55 170.999 1231.03 167.598 1231.57 160.732C1232.06 167.052 1232.51 170.432 1234.16 172.385C1235.81 174.337 1238.69 174.883 1244.02 175.45Z" fill="white" fill-opacity="0.7"/>
<path d="M1244.02 175.45C1239.14 175.975 1236.33 176.458 1234.61 178.053C1232.58 179.922 1232.1 183.344 1231.57 190.188C1231.02 183.092 1230.52 179.691 1228.3 177.864C1226.57 176.437 1223.78 175.975 1219.11 175.471C1223.98 174.946 1226.8 174.463 1228.51 172.889C1230.55 170.999 1231.03 167.598 1231.57 160.732C1232.06 167.052 1232.51 170.432 1234.16 172.385C1235.81 174.337 1238.69 174.883 1244.02 175.45Z" fill="white" fill-opacity="0.7"/>
<path d="M135.532 200.572C130.645 201.21 127.838 201.798 126.114 203.739C124.088 206.012 123.608 210.174 123.075 218.5C122.524 209.868 122.027 205.731 119.805 203.509C118.082 201.772 115.292 201.21 110.618 200.597C115.487 199.959 118.313 199.371 120.019 197.456C122.062 195.158 122.542 191.02 123.075 182.669C123.573 190.356 124.017 194.468 125.67 196.843C127.322 199.218 130.201 199.882 135.532 200.572Z" fill="white" fill-opacity="0.7"/>
<path d="M135.532 200.572C130.645 201.21 127.838 201.798 126.114 203.739C124.088 206.012 123.608 210.174 123.075 218.5C122.524 209.868 122.027 205.731 119.805 203.509C118.082 201.772 115.292 201.21 110.618 200.597C115.487 199.959 118.313 199.371 120.019 197.456C122.062 195.158 122.542 191.02 123.075 182.669C123.573 190.356 124.017 194.468 125.67 196.843C127.322 199.218 130.201 199.882 135.532 200.572Z" fill="white" fill-opacity="0.7"/>
<path d="M462.799 452.319C457.912 452.957 455.104 453.545 453.381 455.486C451.355 457.759 450.875 461.922 450.342 470.247C449.791 461.615 449.293 457.478 447.072 455.256C445.348 453.519 442.558 452.957 437.885 452.344C442.754 451.706 445.579 451.119 447.285 449.203C449.329 446.905 449.809 442.767 450.342 434.416C450.839 442.103 451.284 446.215 452.936 448.59C454.589 450.965 457.468 451.629 462.799 452.319Z" fill="white" fill-opacity="0.7"/>
<path d="M462.799 452.319C457.912 452.957 455.104 453.545 453.381 455.486C451.355 457.759 450.875 461.922 450.342 470.247C449.791 461.615 449.293 457.478 447.072 455.256C445.348 453.519 442.558 452.957 437.885 452.344C442.754 451.706 445.579 451.119 447.285 449.203C449.329 446.905 449.809 442.767 450.342 434.416C450.839 442.103 451.284 446.215 452.936 448.59C454.589 450.965 457.468 451.629 462.799 452.319Z" fill="white" fill-opacity="0.7"/>
<path d="M993.236 533.307C988.349 533.946 985.542 534.533 983.818 536.474C981.792 538.747 981.312 542.91 980.779 551.236C980.228 542.603 979.731 538.466 977.51 536.244C975.786 534.507 972.996 533.946 968.322 533.333C973.191 532.694 976.017 532.107 977.723 530.191C979.766 527.893 980.246 523.756 980.779 515.404C981.277 523.092 981.721 527.203 983.374 529.578C985.026 531.954 987.905 532.618 993.236 533.307Z" fill="white" fill-opacity="0.7"/>
<path d="M993.236 533.307C988.349 533.946 985.542 534.533 983.818 536.474C981.792 538.747 981.312 542.91 980.779 551.236C980.228 542.603 979.731 538.466 977.51 536.244C975.786 534.507 972.996 533.946 968.322 533.333C973.191 532.694 976.017 532.107 977.723 530.191C979.766 527.893 980.246 523.756 980.779 515.404C981.277 523.092 981.721 527.203 983.374 529.578C985.026 531.954 987.905 532.618 993.236 533.307Z" fill="white" fill-opacity="0.7"/>
<path d="M1324.43 147.214C1322.08 147.427 1320.74 147.622 1319.91 148.269C1318.94 149.027 1318.71 150.415 1318.45 153.19C1318.19 150.312 1317.95 148.933 1316.88 148.193C1316.05 147.614 1314.71 147.427 1312.47 147.222C1314.81 147.009 1316.16 146.814 1316.98 146.175C1317.96 145.409 1318.19 144.03 1318.45 141.246C1318.69 143.809 1318.9 145.179 1319.7 145.971C1320.49 146.763 1321.87 146.984 1324.43 147.214Z" fill="white" fill-opacity="0.6"/>
<path d="M1324.43 147.214C1322.08 147.427 1320.74 147.622 1319.91 148.269C1318.94 149.027 1318.71 150.415 1318.45 153.19C1318.19 150.312 1317.95 148.933 1316.88 148.193C1316.05 147.614 1314.71 147.427 1312.47 147.222C1314.81 147.009 1316.16 146.814 1316.98 146.175C1317.96 145.409 1318.19 144.03 1318.45 141.246C1318.69 143.809 1318.9 145.179 1319.7 145.971C1320.49 146.763 1321.87 146.984 1324.43 147.214Z" fill="white" fill-opacity="0.6"/>
<path d="M431.511 154.588C428.384 154.834 426.587 155.061 425.484 155.809C424.187 156.684 423.88 158.289 423.539 161.497C423.186 158.171 422.868 156.576 421.446 155.72C420.343 155.051 418.558 154.834 415.566 154.598C418.683 154.352 420.491 154.126 421.583 153.388C422.891 152.502 423.198 150.908 423.539 147.689C423.857 150.652 424.142 152.236 425.199 153.151C426.257 154.067 428.099 154.323 431.511 154.588Z" fill="white" fill-opacity="0.6"/>
<path d="M431.511 154.588C428.384 154.834 426.587 155.061 425.484 155.809C424.187 156.684 423.88 158.289 423.539 161.497C423.186 158.171 422.868 156.576 421.446 155.72C420.343 155.051 418.558 154.834 415.566 154.598C418.683 154.352 420.491 154.126 421.583 153.388C422.891 152.502 423.198 150.908 423.539 147.689C423.857 150.652 424.142 152.236 425.199 153.151C426.257 154.067 428.099 154.323 431.511 154.588Z" fill="white" fill-opacity="0.6"/>
<path d="M52.818 379.191C49.6904 379.437 47.8935 379.663 46.7903 380.411C45.4938 381.287 45.1867 382.891 44.8455 386.099C44.493 382.773 44.1745 381.179 42.7529 380.323C41.6497 379.653 39.8642 379.437 36.873 379.201C39.9893 378.955 41.7976 378.728 42.8894 377.99C44.1973 377.104 44.5043 375.51 44.8455 372.292C45.164 375.254 45.4483 376.839 46.506 377.754C47.5637 378.669 49.4061 378.925 52.818 379.191Z" fill="white" fill-opacity="0.6"/>
<path d="M52.818 379.191C49.6904 379.437 47.8935 379.663 46.7903 380.411C45.4938 381.287 45.1867 382.891 44.8455 386.099C44.493 382.773 44.1745 381.179 42.7529 380.323C41.6497 379.653 39.8642 379.437 36.873 379.201C39.9893 378.955 41.7976 378.728 42.8894 377.99C44.1973 377.104 44.5043 375.51 44.8455 372.292C45.164 375.254 45.4483 376.839 46.506 377.754C47.5637 378.669 49.4061 378.925 52.818 379.191Z" fill="white" fill-opacity="0.6"/>
<path d="M160.248 506.478C157.12 506.724 155.323 506.95 154.22 507.698C152.923 508.574 152.616 510.178 152.275 513.387C151.923 510.06 151.604 508.466 150.183 507.61C149.079 506.94 147.294 506.724 144.303 506.488C147.419 506.242 149.227 506.015 150.319 505.277C151.627 504.392 151.934 502.797 152.275 499.579C152.594 502.541 152.878 504.126 153.936 505.041C154.993 505.956 156.836 506.212 160.248 506.478Z" fill="white" fill-opacity="0.6"/>
<path d="M160.248 506.478C157.12 506.724 155.323 506.95 154.22 507.698C152.923 508.574 152.616 510.178 152.275 513.387C151.923 510.06 151.604 508.466 150.183 507.61C149.079 506.94 147.294 506.724 144.303 506.488C147.419 506.242 149.227 506.015 150.319 505.277C151.627 504.392 151.934 502.797 152.275 499.579C152.594 502.541 152.878 504.126 153.936 505.041C154.993 505.956 156.836 506.212 160.248 506.478Z" fill="white" fill-opacity="0.6"/>
<path d="M1352.49 585.604C1349.36 585.85 1347.56 586.076 1346.46 586.824C1345.16 587.7 1344.86 589.304 1344.52 592.513C1344.16 589.186 1343.84 587.592 1342.42 586.736C1341.32 586.066 1339.53 585.85 1336.54 585.614C1339.66 585.368 1341.47 585.141 1342.56 584.403C1343.87 583.518 1344.17 581.923 1344.52 578.705C1344.83 581.667 1345.12 583.252 1346.18 584.167C1347.23 585.082 1349.08 585.338 1352.49 585.604Z" fill="white" fill-opacity="0.6"/>
<path d="M1352.49 585.604C1349.36 585.85 1347.56 586.076 1346.46 586.824C1345.16 587.7 1344.86 589.304 1344.52 592.513C1344.16 589.186 1343.84 587.592 1342.42 586.736C1341.32 586.066 1339.53 585.85 1336.54 585.614C1339.66 585.368 1341.47 585.141 1342.56 584.403C1343.87 583.518 1344.17 581.923 1344.52 578.705C1344.83 581.667 1345.12 583.252 1346.18 584.167C1347.23 585.082 1349.08 585.338 1352.49 585.604Z" fill="white" fill-opacity="0.6"/>
<path d="M352.358 275.439C343.758 276.209 338.816 276.919 335.782 279.262C332.217 282.007 331.372 287.033 330.434 297.086C329.465 286.663 328.589 281.668 324.679 278.985C321.646 276.888 316.735 276.209 308.51 275.469C317.079 274.699 322.052 273.989 325.055 271.677C328.651 268.901 329.496 263.906 330.434 253.822C331.31 263.104 332.092 268.069 335 270.936C337.909 273.804 342.976 274.606 352.358 275.439Z" fill="white"/>
<path d="M1044.02 246.973C1034.83 247.824 1029.56 248.607 1026.31 251.195C1022.51 254.226 1021.6 259.777 1020.6 270.877C1019.57 259.368 1018.63 253.851 1014.45 250.889C1011.21 248.573 1005.97 247.824 997.183 247.007C1006.34 246.156 1011.65 245.373 1014.86 242.819C1018.7 239.754 1019.6 234.238 1020.6 223.103C1021.54 233.352 1022.37 238.835 1025.48 242.001C1028.59 245.168 1034 246.054 1044.02 246.973Z" fill="white"/>
<path d="M1268.92 449.538C1261.11 450.244 1256.61 450.893 1253.86 453.037C1250.61 455.548 1249.85 460.146 1248.99 469.343C1248.11 459.808 1247.32 455.237 1243.76 452.783C1241 450.864 1236.54 450.244 1229.06 449.567C1236.85 448.861 1241.37 448.212 1244.1 446.096C1247.37 443.557 1248.14 438.987 1248.99 429.762C1249.79 438.254 1250.5 442.796 1253.14 445.419C1255.79 448.043 1260.4 448.777 1268.92 449.538Z" fill="white"/>
<g filter="url(#filter13_f_642_1002)">
<ellipse cx="975.5" cy="787.5" rx="473.5" ry="249.5" fill="url(#paint16_linear_642_1002)"/>
</g>
<g filter="url(#filter14_f_642_1002)">
<ellipse cx="515" cy="795.5" rx="478" ry="286.5" fill="url(#paint17_linear_642_1002)"/>
</g>
<path d="M1747.97 562.015C1782.64 630.24 1771.61 713.628 1725.64 793.342C1679.66 873.052 1598.77 949.027 1493.84 1002.34C1388.91 1055.66 1279.85 1076.2 1188.36 1066.34C1096.87 1056.47 1023.01 1016.21 988.349 947.984C953.684 879.759 964.707 796.372 1010.68 716.657C1056.66 636.947 1137.55 560.973 1242.48 507.657C1347.41 454.34 1456.47 433.798 1547.96 443.663C1639.45 453.528 1713.3 493.79 1747.97 562.015Z" stroke="url(#paint18_linear_642_1002)"/>
<path d="M1378.85 358.288C1370.25 359.059 1365.31 359.768 1362.27 362.112C1358.71 364.856 1357.86 369.883 1356.92 379.935C1355.95 369.513 1355.08 364.517 1351.17 361.834C1348.14 359.738 1343.23 359.059 1335 358.319C1343.57 357.548 1348.54 356.839 1351.54 354.526C1355.14 351.751 1355.99 346.755 1356.92 336.672C1357.8 345.954 1358.58 350.918 1361.49 353.786C1364.4 356.654 1369.47 357.456 1378.85 358.288Z" fill="white"/>
<path d="M1265.9 147.179C1270.61 163.019 1266.75 180.65 1255.62 199.011C1244.48 217.372 1226.11 236.414 1201.89 255.027C1153.46 292.252 1081.77 327.695 998.297 352.512C914.823 377.33 835.414 386.809 774.514 382.088C744.063 379.728 718.267 373.819 698.911 364.523C679.554 355.226 666.687 342.57 661.978 326.73C657.269 310.891 661.131 293.26 672.265 274.899C683.399 256.538 701.777 237.496 725.992 218.882C774.421 181.658 846.111 146.215 929.585 121.397C1013.06 96.5801 1092.47 87.1007 1153.37 91.8214C1183.82 94.1819 1209.61 100.091 1228.97 109.387C1248.33 118.683 1261.2 131.34 1265.9 147.179Z" stroke="url(#paint19_linear_642_1002)"/>
</g>
</g>
<defs>
<filter id="filter0_f_642_1002" x="706" y="1377" width="1092" height="1082" filterUnits="userSpaceOnUse" color-interpolation-filters="sRGB">
<feFlood flood-opacity="0" result="BackgroundImageFix"/>
<feBlend mode="normal" in="SourceGraphic" in2="BackgroundImageFix" result="shape"/>
<feGaussianBlur stdDeviation="200" result="effect1_foregroundBlur_642_1002"/>
</filter>
<filter id="filter1_f_642_1002" x="1007.17" y="1363" width="686.366" height="806.247" filterUnits="userSpaceOnUse" color-interpolation-filters="sRGB">
<feFlood flood-opacity="0" result="BackgroundImageFix"/>
<feBlend mode="normal" in="SourceGraphic" in2="BackgroundImageFix" result="shape"/>
<feGaussianBlur stdDeviation="100" result="effect1_foregroundBlur_642_1002"/>
</filter>
<filter id="filter2_f_642_1002" x="-541.764" y="1342" width="656.822" height="633" filterUnits="userSpaceOnUse" color-interpolation-filters="sRGB">
<feFlood flood-opacity="0" result="BackgroundImageFix"/>
<feBlend mode="normal" in="SourceGraphic" in2="BackgroundImageFix" result="shape"/>
<feGaussianBlur stdDeviation="100" result="effect1_foregroundBlur_642_1002"/>
</filter>
<filter id="filter3_f_642_1002" x="-200.001" y="1372" width="686.366" height="806.247" filterUnits="userSpaceOnUse" color-interpolation-filters="sRGB">
<feFlood flood-opacity="0" result="BackgroundImageFix"/>
<feBlend mode="normal" in="SourceGraphic" in2="BackgroundImageFix" result="shape"/>
<feGaussianBlur stdDeviation="100" result="effect1_foregroundBlur_642_1002"/>
</filter>
<filter id="filter4_f_642_1002" x="952.429" y="1124" width="611.976" height="619" filterUnits="userSpaceOnUse" color-interpolation-filters="sRGB">
<feFlood flood-opacity="0" result="BackgroundImageFix"/>
<feBlend mode="normal" in="SourceGraphic" in2="BackgroundImageFix" result="shape"/>
<feGaussianBlur stdDeviation="100" result="effect1_foregroundBlur_642_1002"/>
</filter>
<filter id="filter5_iiii_642_1002" x="1191.62" y="1328.44" width="151.941" height="182.091" filterUnits="userSpaceOnUse" color-interpolation-filters="sRGB">
<feFlood flood-opacity="0" result="BackgroundImageFix"/>
<feBlend mode="normal" in="SourceGraphic" in2="BackgroundImageFix" result="shape"/>
<feColorMatrix in="SourceAlpha" type="matrix" values="0 0 0 0 0 0 0 0 0 0 0 0 0 0 0 0 0 0 127 0" result="hardAlpha"/>
<feOffset dx="-35.0358" dy="-50.0511"/>
<feGaussianBlur stdDeviation="50.0511"/>
<feComposite in2="hardAlpha" operator="arithmetic" k2="-1" k3="1"/>
<feColorMatrix type="matrix" values="0 0 0 0 0.883333 0 0 0 0 0.235556 0 0 0 0 0.235556 0 0 0 0.76 0"/>
<feBlend mode="normal" in2="shape" result="effect1_innerShadow_642_1002"/>
<feColorMatrix in="SourceAlpha" type="matrix" values="0 0 0 0 0 0 0 0 0 0 0 0 0 0 0 0 0 0 127 0" result="hardAlpha"/>
<feOffset dx="-5.00511" dy="-5.00511"/>
<feGaussianBlur stdDeviation="10.0102"/>
<feComposite in2="hardAlpha" operator="arithmetic" k2="-1" k3="1"/>
<feColorMatrix type="matrix" values="0 0 0 0 0.3325 0 0 0 0 0.0675 0 0 0 0 0.0675001 0 0 0 1 0"/>
<feBlend mode="normal" in2="effect1_innerShadow_642_1002" result="effect2_innerShadow_642_1002"/>
<feColorMatrix in="SourceAlpha" type="matrix" values="0 0 0 0 0 0 0 0 0 0 0 0 0 0 0 0 0 0 127 0" result="hardAlpha"/>
<feOffset dy="20.0205"/>
<feGaussianBlur stdDeviation="10.0102"/>
<feComposite in2="hardAlpha" operator="arithmetic" k2="-1" k3="1"/>
<feColorMatrix type="matrix" values="0 0 0 0 1 0 0 0 0 0.9905 0 0 0 0 0.7625 0 0 0 0.25 0"/>
<feBlend mode="normal" in2="effect2_innerShadow_642_1002" result="effect3_innerShadow_642_1002"/>
<feColorMatrix in="SourceAlpha" type="matrix" values="0 0 0 0 0 0 0 0 0 0 0 0 0 0 0 0 0 0 127 0" result="hardAlpha"/>
<feOffset dx="-40" dy="-20"/>
<feGaussianBlur stdDeviation="20"/>
<feComposite in2="hardAlpha" operator="arithmetic" k2="-1" k3="1"/>
<feColorMatrix type="matrix" values="0 0 0 0 0 0 0 0 0 0 0 0 0 0 0 0 0 0 0.25 0"/>
<feBlend mode="normal" in2="effect3_innerShadow_642_1002" result="effect4_innerShadow_642_1002"/>
</filter>
<filter id="filter6_f_642_1002" x="713" y="2429" width="694" height="691" filterUnits="userSpaceOnUse" color-interpolation-filters="sRGB">
<feFlood flood-opacity="0" result="BackgroundImageFix"/>
<feBlend mode="normal" in="SourceGraphic" in2="BackgroundImageFix" result="shape"/>
<feGaussianBlur stdDeviation="100" result="effect1_foregroundBlur_642_1002"/>
</filter>
<filter id="filter7_f_642_1002" x="-113" y="1992" width="1300" height="1069" filterUnits="userSpaceOnUse" color-interpolation-filters="sRGB">
<feFlood flood-opacity="0" result="BackgroundImageFix"/>
<feBlend mode="normal" in="SourceGraphic" in2="BackgroundImageFix" result="shape"/>
<feGaussianBlur stdDeviation="100" result="effect1_foregroundBlur_642_1002"/>
</filter>
<filter id="filter8_f_642_1002" x="646.11" y="2373.12" width="886.804" height="876.099" filterUnits="userSpaceOnUse" color-interpolation-filters="sRGB">
<feFlood flood-opacity="0" result="BackgroundImageFix"/>
<feBlend mode="normal" in="SourceGraphic" in2="BackgroundImageFix" result="shape"/>
<feGaussianBlur stdDeviation="175" result="effect1_foregroundBlur_642_1002"/>
</filter>
<filter id="filter9_f_642_1002" x="573" y="2152" width="679" height="815" filterUnits="userSpaceOnUse" color-interpolation-filters="sRGB">
<feFlood flood-opacity="0" result="BackgroundImageFix"/>
<feBlend mode="normal" in="SourceGraphic" in2="BackgroundImageFix" result="shape"/>
<feGaussianBlur stdDeviation="100" result="effect1_foregroundBlur_642_1002"/>
</filter>
<filter id="filter10_f_642_1002" x="415.118" y="1983.14" width="921.764" height="887.938" filterUnits="userSpaceOnUse" color-interpolation-filters="sRGB">
<feFlood flood-opacity="0" result="BackgroundImageFix"/>
<feBlend mode="normal" in="SourceGraphic" in2="BackgroundImageFix" result="shape"/>
<feGaussianBlur stdDeviation="175" result="effect1_foregroundBlur_642_1002"/>
</filter>
<filter id="filter11_f_642_1002" x="321.13" y="2279.14" width="920.456" height="906.991" filterUnits="userSpaceOnUse" color-interpolation-filters="sRGB">
<feFlood flood-opacity="0" result="BackgroundImageFix"/>
<feBlend mode="normal" in="SourceGraphic" in2="BackgroundImageFix" result="shape"/>
<feGaussianBlur stdDeviation="175" result="effect1_foregroundBlur_642_1002"/>
</filter>
<filter id="filter12_f_642_1002" x="-331" y="4354" width="2011" height="947" filterUnits="userSpaceOnUse" color-interpolation-filters="sRGB">
<feFlood flood-opacity="0" result="BackgroundImageFix"/>
<feBlend mode="normal" in="SourceGraphic" in2="BackgroundImageFix" result="shape"/>
<feGaussianBlur stdDeviation="100" result="effect1_foregroundBlur_642_1002"/>
</filter>
<filter id="filter13_f_642_1002" x="152" y="188" width="1647" height="1199" filterUnits="userSpaceOnUse" color-interpolation-filters="sRGB">
<feFlood flood-opacity="0" result="BackgroundImageFix"/>
<feBlend mode="normal" in="SourceGraphic" in2="BackgroundImageFix" result="shape"/>
<feGaussianBlur stdDeviation="175" result="effect1_foregroundBlur_642_1002"/>
</filter>
<filter id="filter14_f_642_1002" x="-313" y="159" width="1656" height="1273" filterUnits="userSpaceOnUse" color-interpolation-filters="sRGB">
<feFlood flood-opacity="0" result="BackgroundImageFix"/>
<feBlend mode="normal" in="SourceGraphic" in2="BackgroundImageFix" result="shape"/>
<feGaussianBlur stdDeviation="175" result="effect1_foregroundBlur_642_1002"/>
</filter>
<linearGradient id="paint0_linear_642_1002" x1="1252" y1="1772" x2="1252" y2="2064" gradientUnits="userSpaceOnUse">
<stop stop-color="#2C4982"/>
<stop offset="1" stop-color="#2CD095"/>
</linearGradient>
<linearGradient id="paint1_linear_642_1002" x1="289.769" y1="1775.91" x2="1116.74" y2="1639.61" gradientUnits="userSpaceOnUse">
<stop stop-color="#484848"/>
<stop offset="0.491388" stop-color="#484848" stop-opacity="0.36"/>
<stop offset="1" stop-color="#484848"/>
</linearGradient>
<linearGradient id="paint2_linear_642_1002" x1="143.183" y1="0" x2="143.183" y2="406.247" gradientUnits="userSpaceOnUse">
<stop stop-color="#18FF9E" stop-opacity="0"/>
<stop offset="1" stop-color="#17FFE3"/>
</linearGradient>
<linearGradient id="paint3_linear_642_1002" x1="-160.817" y1="1417.22" x2="-160.817" y2="1650.22" gradientUnits="userSpaceOnUse">
<stop stop-color="#FF4F18" stop-opacity="0"/>
<stop offset="1" stop-color="#FF4117"/>
</linearGradient>
<linearGradient id="paint4_linear_642_1002" x1="143.183" y1="0" x2="143.183" y2="406.247" gradientUnits="userSpaceOnUse">
<stop stop-color="#18FF9E" stop-opacity="0"/>
<stop offset="1" stop-color="#17FFE3"/>
</linearGradient>
<linearGradient id="paint5_linear_642_1002" x1="-130.657" y1="1881.7" x2="1313.96" y2="1629.28" gradientUnits="userSpaceOnUse">
<stop stop-color="#484848"/>
<stop offset="0.491388" stop-color="#484848" stop-opacity="0.36"/>
<stop offset="1" stop-color="#484848"/>
</linearGradient>
<linearGradient id="paint6_linear_642_1002" x1="105.988" y1="0" x2="105.988" y2="219" gradientUnits="userSpaceOnUse">
<stop stop-color="#FF4F18" stop-opacity="0"/>
<stop offset="1" stop-color="#FF4117"/>
</linearGradient>
<linearGradient id="paint7_linear_642_1002" x1="1202.28" y1="1385.4" x2="1259.21" y2="1342.1" gradientUnits="userSpaceOnUse">
<stop stop-color="#F3DD16"/>
<stop offset="1" stop-color="#BD391C"/>
</linearGradient>
<linearGradient id="paint8_linear_642_1002" x1="1060" y1="2629" x2="1060" y2="2920" gradientUnits="userSpaceOnUse">
<stop stop-color="#184BFF" stop-opacity="0"/>
<stop offset="1" stop-color="#174AFF"/>
</linearGradient>
<linearGradient id="paint9_linear_642_1002" x1="537" y1="2192" x2="537" y2="2861" gradientUnits="userSpaceOnUse">
<stop stop-color="#184BFF" stop-opacity="0"/>
<stop offset="1" stop-color="#174AFF"/>
</linearGradient>
<radialGradient id="paint10_diamond_642_1002" cx="0" cy="0" r="1" gradientUnits="userSpaceOnUse" gradientTransform="translate(1089.51 2811.17) rotate(90) scale(88.0494 93.4016)">
<stop stop-color="#00C2FF" stop-opacity="0"/>
<stop offset="1" stop-color="#FF29C3"/>
</radialGradient>
<linearGradient id="paint11_linear_642_1002" x1="912.5" y1="2352" x2="912.5" y2="2767" gradientUnits="userSpaceOnUse">
<stop stop-color="#184BFF" stop-opacity="0"/>
<stop offset="1" stop-color="white"/>
</linearGradient>
<radialGradient id="paint12_diamond_642_1002" cx="0" cy="0" r="1" gradientUnits="userSpaceOnUse" gradientTransform="translate(876 2427.11) rotate(90) scale(93.9688 110.882)">
<stop stop-color="#00C2FF" stop-opacity="0"/>
<stop offset="1" stop-color="#FF29C3"/>
</radialGradient>
<radialGradient id="paint13_diamond_642_1002" cx="0" cy="0" r="1" gradientUnits="userSpaceOnUse" gradientTransform="translate(781.358 2732.63) rotate(90) scale(103.496 110.228)">
<stop stop-color="#00C2FF" stop-opacity="0"/>
<stop offset="1" stop-color="#FF29C3"/>
</radialGradient>
<linearGradient id="paint14_linear_642_1002" x1="53.8573" y1="2844.8" x2="1353.55" y2="2427.64" gradientUnits="userSpaceOnUse">
<stop stop-color="#484848"/>
<stop offset="0.491388" stop-color="#FDE4E4" stop-opacity="0.36"/>
<stop offset="1" stop-color="#484848"/>
</linearGradient>
<linearGradient id="paint15_linear_642_1002" x1="674.5" y1="4554" x2="674.5" y2="5101" gradientUnits="userSpaceOnUse">
<stop stop-color="#184BFF" stop-opacity="0"/>
<stop offset="1" stop-color="#174AFF"/>
</linearGradient>
<linearGradient id="paint16_linear_642_1002" x1="975.5" y1="538" x2="975.5" y2="1037" gradientUnits="userSpaceOnUse">
<stop stop-color="#00C2FF" stop-opacity="0"/>
<stop offset="1" stop-color="#FF29C3"/>
</linearGradient>
<linearGradient id="paint17_linear_642_1002" x1="515" y1="509" x2="515" y2="1082" gradientUnits="userSpaceOnUse">
<stop stop-color="#00C2FF" stop-opacity="0"/>
<stop offset="0.9375" stop-color="#17C8FF" stop-opacity="0.9375"/>
<stop offset="1" stop-color="#FF29C3"/>
</linearGradient>
<linearGradient id="paint18_linear_642_1002" x1="995.632" y1="909.133" x2="1721.52" y2="625.044" gradientUnits="userSpaceOnUse">
<stop stop-color="#484848"/>
<stop offset="0.491388" stop-color="#484848" stop-opacity="0.36"/>
<stop offset="1" stop-color="#484848"/>
</linearGradient>
<linearGradient id="paint19_linear_642_1002" x1="675.047" y1="308.605" x2="1242.18" y2="237.296" gradientUnits="userSpaceOnUse">
<stop stop-color="#484848"/>
<stop offset="0.491388" stop-color="#484848" stop-opacity="0.36"/>
<stop offset="1" stop-color="#484848"/>
</linearGradient>
<clipPath id="clip0_642_1002">
<rect width="1449" height="4904" fill="white"/>
</clipPath>
<clipPath id="clip1_642_1002">
<rect width="1448" height="1043" fill="white" transform="translate(0 1200)"/>
</clipPath>
<clipPath id="clip2_642_1002">
<rect width="1449" height="1225" fill="white" transform="translate(-1 1992)"/>
</clipPath>
<clipPath id="clip3_642_1002">
<rect width="1449" height="1401" fill="white" transform="translate(0 -18)"/>
</clipPath>
</defs>
</svg>
