<svg width="1147" height="907" viewBox="0 0 1147 907" fill="none" xmlns="http://www.w3.org/2000/svg">
<g filter="url(#filter0_d_615_647)">
<path d="M25 55.59C25 48.5318 25 45.0026 25.7682 42.1053C27.8852 34.1211 34.1211 27.8852 42.1053 25.7682C45.0026 25 48.5317 25 55.59 25H863.24C916.023 25 942.415 25 964.082 30.7448C1023.79 46.5762 1070.42 93.2098 1086.26 152.918C1092 174.585 1092 200.977 1092 253.76V821.41C1092 828.468 1092 831.997 1091.23 834.895C1089.11 842.879 1082.88 849.115 1074.89 851.232C1072 852 1068.47 852 1061.41 852H55.59C48.5317 852 45.0026 852 42.1053 851.232C34.1211 849.115 27.8852 842.879 25.7682 834.895C25 831.997 25 828.468 25 821.41V55.59Z" fill="url(#paint0_radial_615_647)"/>
</g>
<defs>
<filter id="filter0_d_615_647" x="0" y="0" width="1147" height="907" filterUnits="userSpaceOnUse" color-interpolation-filters="sRGB">
<feFlood flood-opacity="0" result="BackgroundImageFix"/>
<feColorMatrix in="SourceAlpha" type="matrix" values="0 0 0 0 0 0 0 0 0 0 0 0 0 0 0 0 0 0 127 0" result="hardAlpha"/>
<feOffset dx="15" dy="15"/>
<feGaussianBlur stdDeviation="20"/>
<feComposite in2="hardAlpha" operator="out"/>
<feColorMatrix type="matrix" values="0 0 0 0 0.0941176 0 0 0 0 1 0 0 0 0 1 0 0 0 0.3 0"/>
<feBlend mode="normal" in2="BackgroundImageFix" result="effect1_dropShadow_615_647"/>
<feBlend mode="normal" in="SourceGraphic" in2="effect1_dropShadow_615_647" result="shape"/>
</filter>
<radialGradient id="paint0_radial_615_647" cx="0" cy="0" r="1" gradientUnits="userSpaceOnUse" gradientTransform="translate(-2267.5 24.9999) rotate(21.4654) scale(3609.89 1308.1)">
<stop stop-color="#18FFFF"/>
<stop offset="1" stop-color="#1A1B23"/>
</radialGradient>
</defs>
</svg>
