<svg width="1440" height="4904" viewBox="0 0 1450 4904" fill="none" xmlns="http://www.w3.org/2000/svg">
<path d="M723 1331.99C719.077 1332.42 716.823 1332.81 715.439 1334.11C713.813 1335.64 713.428 1338.42 713 1344C712.558 1338.22 712.158 1335.45 710.375 1333.96C708.991 1332.8 706.752 1332.42 703 1332.01C706.909 1331.58 709.177 1331.19 710.546 1329.9C712.187 1328.36 712.572 1325.59 713 1320C713.399 1325.15 713.756 1327.9 715.083 1329.49C716.409 1331.08 718.72 1331.53 723 1331.99Z" fill="white"/>
<path d="M1152.77 1537.12C1170.2 1593.98 1136.98 1660.64 1068.81 1722.5C1000.67 1784.33 897.755 1841.22 776.209 1878.49C654.662 1915.76 537.545 1926.34 446.459 1913.34C355.33 1900.32 290.448 1863.74 273.013 1806.88C255.578 1750.02 288.801 1683.36 356.971 1621.5C425.109 1559.67 528.025 1502.78 649.572 1465.51C771.118 1428.24 888.235 1417.66 979.321 1430.66C1070.45 1443.68 1135.33 1480.26 1152.77 1537.12Z" stroke="url(#paint0_linear_928_228)"/>
<path d="M438.849 1693.62C430.248 1694.39 425.306 1695.1 422.273 1697.44C418.707 1700.18 417.863 1705.21 416.924 1715.26C415.955 1704.84 415.079 1699.85 411.17 1697.16C408.136 1695.07 403.226 1694.39 395 1693.65C403.57 1692.88 408.542 1692.17 411.545 1689.85C415.142 1687.08 415.986 1682.08 416.924 1672C417.8 1681.28 418.582 1686.25 421.491 1689.11C424.399 1691.98 429.466 1692.78 438.849 1693.62Z" fill="white"/>
<path d="M132 2257.99C125.135 2258.66 121.19 2259.29 118.769 2261.34C115.923 2263.76 115.249 2268.17 114.5 2277C113.726 2267.85 113.027 2263.46 109.907 2261.1C107.485 2259.26 103.566 2258.66 97 2258.01C103.84 2257.34 107.81 2256.71 110.206 2254.68C113.077 2252.24 113.751 2247.86 114.5 2239C115.199 2247.15 115.823 2251.51 118.145 2254.03C120.466 2256.55 124.511 2257.26 132 2257.99Z" fill="white" fill-opacity="0.7"/>
<path d="M174 1497.99C167.919 1498.52 164.426 1499.02 162.281 1500.64C159.76 1502.54 159.163 1506.03 158.5 1513C157.815 1505.77 157.195 1502.31 154.432 1500.45C152.287 1498.99 148.815 1498.52 143 1498.01C149.058 1497.48 152.574 1496.98 154.697 1495.38C157.24 1493.46 157.837 1489.99 158.5 1483C159.119 1489.44 159.672 1492.88 161.728 1494.87C163.785 1496.86 167.367 1497.41 174 1497.99Z" fill="white" fill-opacity="0.7"/>
<g clip-path="url(#clip0_928_228)">
<path d="M1155.2 1264.49C1148.15 1265.15 1144.09 1265.75 1141.6 1267.76C1138.68 1270.1 1137.98 1274.4 1137.22 1283C1136.42 1274.09 1135.7 1269.81 1132.49 1267.52C1130 1265.73 1125.98 1265.15 1119.23 1264.51C1126.26 1263.85 1130.34 1263.25 1132.8 1261.27C1135.75 1258.9 1136.45 1254.62 1137.22 1246C1137.93 1253.94 1138.58 1258.18 1140.96 1260.64C1143.35 1263.09 1147.5 1263.77 1155.2 1264.49Z" fill="white" fill-opacity="0.7"/>
<path d="M1383.3 1497.54C1418.98 1620.57 1365.1 1757.03 1248.94 1878.25C1132.79 1999.45 954.441 2105.31 741.42 2167.08C528.399 2228.86 321.083 2234.82 158.114 2194.56C-4.87092 2154.29 -123.4 2067.82 -159.074 1944.79C-194.749 1821.77 -140.868 1685.3 -24.7089 1564.09C91.4396 1442.88 269.786 1337.02 482.808 1275.25C695.829 1213.47 903.144 1207.51 1066.11 1247.77C1229.1 1288.04 1347.63 1374.51 1383.3 1497.54Z" stroke="url(#paint1_linear_928_228)"/>
<path d="M1120.07 1358.87C1110.88 1359.72 1105.61 1360.5 1102.37 1363.09C1098.57 1366.12 1097.66 1371.67 1096.66 1382.77C1095.63 1371.27 1094.69 1365.75 1090.52 1362.79C1087.28 1360.47 1082.04 1359.72 1073.26 1358.9C1082.41 1358.05 1087.72 1357.27 1090.92 1354.72C1094.76 1351.65 1095.66 1346.14 1096.66 1335C1097.6 1345.25 1098.43 1350.73 1101.54 1353.9C1104.64 1357.07 1110.05 1357.95 1120.07 1358.87Z" fill="white"/>
<path d="M444.693 1224.99C439.597 1225.56 436.669 1226.08 434.871 1227.82C432.759 1229.85 432.258 1233.56 431.702 1241C431.128 1233.29 430.609 1229.6 428.293 1227.61C426.495 1226.06 423.585 1225.56 418.711 1225.01C423.789 1224.44 426.736 1223.92 428.515 1222.21C430.646 1220.15 431.146 1216.46 431.702 1209C432.221 1215.87 432.685 1219.54 434.408 1221.66C436.132 1223.78 439.134 1224.37 444.693 1224.99Z" fill="white" fill-opacity="0.9"/>
<path d="M888.387 1526.49C883.291 1527.04 880.363 1527.55 878.565 1529.23C876.453 1531.2 875.952 1534.8 875.396 1542C874.822 1534.53 874.303 1530.95 871.986 1529.03C870.189 1527.53 867.279 1527.04 862.405 1526.51C867.483 1525.96 870.43 1525.45 872.209 1523.79C874.34 1521.8 874.84 1518.23 875.396 1511C875.915 1517.65 876.379 1521.21 878.102 1523.26C879.825 1525.32 882.828 1525.89 888.387 1526.49Z" fill="white" fill-opacity="0.9"/>
<path d="M974 2055.49C967.135 2056.11 963.19 2056.68 960.769 2058.58C957.923 2060.8 957.249 2064.87 956.5 2073C955.726 2064.57 955.027 2060.53 951.907 2058.36C949.485 2056.66 945.566 2056.11 939 2055.51C945.84 2054.89 949.81 2054.32 952.206 2052.44C955.077 2050.2 955.751 2046.16 956.5 2038C957.199 2045.51 957.823 2049.53 960.145 2051.85C962.466 2054.17 966.511 2054.81 974 2055.49Z" fill="white"/>
<path d="M552 1540.49C548.273 1540.97 546.132 1541.41 544.817 1542.88C543.272 1544.59 542.907 1547.73 542.5 1554C542.08 1547.5 541.7 1544.38 540.006 1542.7C538.692 1541.39 536.564 1540.97 533 1540.51C536.713 1540.03 538.868 1539.59 540.169 1538.14C541.728 1536.41 542.093 1533.29 542.5 1527C542.879 1532.79 543.218 1535.89 544.479 1537.68C545.739 1539.47 547.934 1539.97 552 1540.49Z" fill="white" fill-opacity="0.6"/>
</g>
<g clip-path="url(#clip1_928_228)">
<path d="M1393.02 2273.49C1437.56 2369.76 1402.05 2492.14 1308.34 2612.27C1214.65 2732.37 1062.87 2850.08 875.212 2936.91C687.551 3023.74 499.58 3063.23 347.389 3056.89C195.168 3050.56 78.8946 2998.4 34.3517 2902.13C-10.1913 2805.86 25.3239 2683.48 119.032 2563.35C212.723 2443.25 364.498 2325.54 552.159 2238.71C739.82 2151.88 927.791 2112.4 1079.98 2118.73C1232.2 2125.06 1348.48 2177.22 1393.02 2273.49Z" stroke="url(#paint2_linear_928_228)"/>
<path d="M1169 2621.49C1163.12 2622.18 1159.73 2622.82 1157.66 2624.93C1155.22 2627.41 1154.64 2631.94 1154 2641C1153.34 2631.6 1152.74 2627.1 1150.06 2624.68C1147.99 2622.79 1144.63 2622.18 1139 2621.51C1144.86 2620.82 1148.27 2620.18 1150.32 2618.09C1152.78 2615.59 1153.36 2611.09 1154 2602C1154.6 2610.37 1155.13 2614.84 1157.12 2617.43C1159.11 2620.01 1162.58 2620.74 1169 2621.49Z" fill="white" fill-opacity="0.7"/>
<path d="M1169 2621.49C1163.12 2622.18 1159.73 2622.82 1157.66 2624.93C1155.22 2627.41 1154.64 2631.94 1154 2641C1153.34 2631.6 1152.74 2627.1 1150.06 2624.68C1147.99 2622.79 1144.63 2622.18 1139 2621.51C1144.86 2620.82 1148.27 2620.18 1150.32 2618.09C1152.78 2615.59 1153.36 2611.09 1154 2602C1154.6 2610.37 1155.13 2614.84 1157.12 2617.43C1159.11 2620.01 1162.58 2620.74 1169 2621.49Z" fill="white" fill-opacity="0.7"/>
<path d="M1397 2486.49C1390.92 2487.08 1387.43 2487.62 1385.28 2489.4C1382.76 2491.5 1382.16 2495.33 1381.5 2503C1380.81 2495.05 1380.2 2491.24 1377.43 2489.19C1375.29 2487.59 1371.82 2487.08 1366 2486.51C1372.06 2485.92 1375.57 2485.38 1377.7 2483.62C1380.24 2481.5 1380.84 2477.69 1381.5 2470C1382.12 2477.08 1382.67 2480.87 1384.73 2483.05C1386.78 2485.24 1390.37 2485.85 1397 2486.49Z" fill="white"/>
<path d="M1228 2711.99C1224.08 2712.42 1221.82 2712.81 1220.44 2714.11C1218.81 2715.64 1218.43 2718.42 1218 2724C1217.56 2718.22 1217.16 2715.45 1215.38 2713.96C1213.99 2712.8 1211.75 2712.42 1208 2712.01C1211.91 2711.58 1214.18 2711.19 1215.55 2709.9C1217.19 2708.36 1217.57 2705.59 1218 2700C1218.4 2705.15 1218.76 2707.9 1220.08 2709.49C1221.41 2711.08 1223.72 2711.53 1228 2711.99Z" fill="white" fill-opacity="0.5"/>
<path d="M1228 2711.99C1224.08 2712.42 1221.82 2712.81 1220.44 2714.11C1218.81 2715.64 1218.43 2718.42 1218 2724C1217.56 2718.22 1217.16 2715.45 1215.38 2713.96C1213.99 2712.8 1211.75 2712.42 1208 2712.01C1211.91 2711.58 1214.18 2711.19 1215.55 2709.9C1217.19 2708.36 1217.57 2705.59 1218 2700C1218.4 2705.15 1218.76 2707.9 1220.08 2709.49C1221.41 2711.08 1223.72 2711.53 1228 2711.99Z" fill="white" fill-opacity="0.5"/>
<path d="M1409 2048.99C1403.9 2049.52 1400.97 2050.02 1399.17 2051.64C1397.06 2053.54 1396.56 2057.03 1396 2064C1395.43 2056.77 1394.91 2053.31 1392.59 2051.45C1390.79 2049.99 1387.88 2049.52 1383 2049.01C1388.08 2048.48 1391.03 2047.98 1392.81 2046.38C1394.94 2044.46 1395.44 2040.99 1396 2034C1396.52 2040.44 1396.98 2043.88 1398.71 2045.87C1400.43 2047.86 1403.44 2048.41 1409 2048.99Z" fill="white" fill-opacity="0.6"/>
<path d="M621.849 2213.62C613.248 2214.39 608.306 2215.1 605.273 2217.44C601.707 2220.18 600.863 2225.21 599.924 2235.26C598.955 2224.84 598.079 2219.85 594.17 2217.16C591.136 2215.07 586.226 2214.39 578 2213.65C586.57 2212.88 591.542 2212.17 594.545 2209.85C598.142 2207.08 598.986 2202.08 599.924 2192C600.8 2201.28 601.582 2206.25 604.491 2209.11C607.399 2211.98 612.466 2212.78 621.849 2213.62Z" fill="white"/>
<path d="M1324 2177.99C1317.13 2178.66 1313.19 2179.29 1310.77 2181.34C1307.92 2183.76 1307.25 2188.17 1306.5 2197C1305.73 2187.85 1305.03 2183.46 1301.91 2181.1C1299.49 2179.26 1295.57 2178.66 1289 2178.01C1295.84 2177.34 1299.81 2176.71 1302.21 2174.68C1305.08 2172.24 1305.75 2167.86 1306.5 2159C1307.2 2167.15 1307.82 2171.51 1310.14 2174.03C1312.47 2176.55 1316.51 2177.26 1324 2177.99Z" fill="white"/>
<path d="M1060.91 2333.9C1056.03 2334.54 1053.22 2335.13 1051.5 2337.07C1049.47 2339.34 1048.99 2343.51 1048.46 2351.83C1047.91 2343.2 1047.41 2339.06 1045.19 2336.84C1043.46 2335.1 1040.67 2334.54 1036 2333.93C1040.87 2333.29 1043.69 2332.7 1045.4 2330.79C1047.44 2328.49 1047.92 2324.35 1048.46 2316C1048.95 2323.69 1049.4 2327.8 1051.05 2330.17C1052.7 2332.55 1055.58 2333.21 1060.91 2333.9Z" fill="white" fill-opacity="0.7"/>
<path d="M1060.91 2333.9C1056.03 2334.54 1053.22 2335.13 1051.5 2337.07C1049.47 2339.34 1048.99 2343.51 1048.46 2351.83C1047.91 2343.2 1047.41 2339.06 1045.19 2336.84C1043.46 2335.1 1040.67 2334.54 1036 2333.93C1040.87 2333.29 1043.69 2332.7 1045.4 2330.79C1047.44 2328.49 1047.92 2324.35 1048.46 2316C1048.95 2323.69 1049.4 2327.8 1051.05 2330.17C1052.7 2332.55 1055.58 2333.21 1060.91 2333.9Z" fill="white" fill-opacity="0.7"/>
</g>
<path d="M1334 4319.99C1327.92 4320.63 1324.43 4321.22 1322.28 4323.17C1319.76 4325.45 1319.16 4329.64 1318.5 4338C1317.81 4329.33 1317.2 4325.17 1314.43 4322.94C1312.29 4321.19 1308.82 4320.63 1303 4320.01C1309.06 4319.37 1312.57 4318.78 1314.7 4316.86C1317.24 4314.55 1317.84 4310.39 1318.5 4302C1319.12 4309.72 1319.67 4313.85 1321.73 4316.24C1323.78 4318.63 1327.37 4319.29 1334 4319.99Z" fill="white"/>
<path d="M382.957 4186.99C376.885 4187.63 373.396 4188.22 371.254 4190.17C368.737 4192.45 368.141 4196.64 367.479 4205C366.794 4196.33 366.176 4192.17 363.416 4189.94C361.274 4188.19 357.807 4187.63 352 4187.01C358.05 4186.37 361.561 4185.78 363.681 4183.86C366.22 4181.55 366.816 4177.39 367.479 4169C368.097 4176.72 368.649 4180.85 370.702 4183.24C372.756 4185.63 376.333 4186.29 382.957 4186.99Z" fill="white"/>
<path d="M457 4337.99C453.469 4338.35 451.441 4338.68 450.195 4339.76C448.732 4341.03 448.385 4343.35 448 4348C447.602 4343.18 447.243 4340.87 445.638 4339.63C444.392 4338.66 442.377 4338.35 439 4338.01C442.518 4337.65 444.559 4337.32 445.792 4336.25C447.268 4334.97 447.615 4332.66 448 4328C448.359 4332.29 448.68 4334.59 449.874 4335.91C451.068 4337.24 453.148 4337.61 457 4337.99Z" fill="white"/>
<path d="M260.838 4376.87C251.651 4377.72 246.373 4378.5 243.132 4381.09C239.323 4384.12 238.421 4389.67 237.419 4400.77C236.384 4389.27 235.448 4383.75 231.272 4380.79C228.031 4378.47 222.786 4377.72 214 4376.9C223.154 4376.05 228.466 4375.27 231.673 4372.72C235.515 4369.65 236.417 4364.14 237.419 4353C238.355 4363.25 239.19 4368.73 242.297 4371.9C245.404 4375.07 250.816 4375.95 260.838 4376.87Z" fill="white"/>
<path d="M1053 4269.99C1046.92 4270.63 1043.43 4271.22 1041.28 4273.17C1038.76 4275.45 1038.16 4279.64 1037.5 4288C1036.81 4279.33 1036.2 4275.17 1033.43 4272.94C1031.29 4271.19 1027.82 4270.63 1022 4270.01C1028.06 4269.37 1031.57 4268.78 1033.7 4266.86C1036.24 4264.55 1036.84 4260.39 1037.5 4252C1038.12 4259.72 1038.67 4263.85 1040.73 4266.24C1042.78 4268.63 1046.37 4269.29 1053 4269.99Z" fill="white"/>
<path d="M753 4251.99C746.919 4252.63 743.426 4253.22 741.281 4255.17C738.76 4257.45 738.163 4261.64 737.5 4270C736.815 4261.33 736.195 4257.17 733.432 4254.94C731.287 4253.19 727.815 4252.63 722 4252.01C728.058 4251.37 731.574 4250.78 733.697 4248.86C736.24 4246.55 736.837 4242.39 737.5 4234C738.119 4241.72 738.672 4245.85 740.728 4248.24C742.785 4250.63 746.367 4251.29 753 4251.99Z" fill="white"/>
<path d="M612 4081.99C605.919 4082.63 602.426 4083.22 600.281 4085.17C597.76 4087.45 597.163 4091.64 596.5 4100C595.815 4091.33 595.195 4087.17 592.432 4084.94C590.287 4083.19 586.815 4082.63 581 4082.01C587.058 4081.37 590.574 4080.78 592.697 4078.86C595.24 4076.55 595.837 4072.39 596.5 4064C597.119 4071.72 597.672 4075.85 599.728 4078.24C601.785 4080.63 605.367 4081.29 612 4081.99Z" fill="white"/>
<path d="M1150 4541.49C1145.29 4541.97 1142.59 4542.41 1140.93 4543.88C1138.98 4545.59 1138.51 4548.73 1138 4555C1137.47 4548.5 1136.99 4545.38 1134.85 4543.7C1133.19 4542.39 1130.5 4541.97 1126 4541.51C1130.69 4541.03 1133.41 4540.59 1135.06 4539.14C1137.02 4537.41 1137.49 4534.29 1138 4528C1138.48 4533.79 1138.91 4536.89 1140.5 4538.68C1142.09 4540.47 1144.86 4540.97 1150 4541.49Z" fill="white" fill-opacity="0.6"/>
<path d="M213 4528.99C209.469 4529.35 207.441 4529.68 206.195 4530.76C204.732 4532.03 204.385 4534.35 204 4539C203.602 4534.18 203.243 4531.87 201.638 4530.63C200.392 4529.66 198.377 4529.35 195 4529.01C198.518 4528.65 200.559 4528.32 201.792 4527.25C203.268 4525.97 203.615 4523.66 204 4519C204.359 4523.29 204.68 4525.59 205.874 4526.91C207.068 4528.24 209.148 4528.61 213 4528.99Z" fill="white" fill-opacity="0.8"/>
<path d="M284 4668.49C281.058 4668.8 279.367 4669.08 278.33 4670C277.11 4671.07 276.821 4673.05 276.5 4677C276.168 4672.9 275.869 4670.94 274.531 4669.89C273.494 4669.06 271.814 4668.8 269 4668.51C271.932 4668.2 273.633 4667.92 274.66 4667.02C275.89 4665.93 276.179 4663.96 276.5 4660C276.8 4663.65 277.067 4665.6 278.062 4666.72C279.057 4667.85 280.79 4668.17 284 4668.49Z" fill="white" fill-opacity="0.7"/>
<path d="M152 4668.49C149.058 4668.8 147.367 4669.08 146.33 4670C145.11 4671.07 144.821 4673.05 144.5 4677C144.168 4672.9 143.869 4670.94 142.531 4669.89C141.494 4669.06 139.814 4668.8 137 4668.51C139.932 4668.2 141.633 4667.92 142.66 4667.02C143.89 4665.93 144.179 4663.96 144.5 4660C144.8 4663.65 145.067 4665.6 146.062 4666.72C147.057 4667.85 148.79 4668.17 152 4668.49Z" fill="white" fill-opacity="0.2"/>
<path d="M376 4518.99C372.469 4519.35 370.441 4519.68 369.195 4520.76C367.732 4522.03 367.385 4524.35 367 4529C366.602 4524.18 366.243 4521.87 364.638 4520.63C363.392 4519.66 361.377 4519.35 358 4519.01C361.518 4518.65 363.559 4518.32 364.792 4517.25C366.268 4515.97 366.615 4513.66 367 4509C367.359 4513.29 367.68 4515.59 368.874 4516.91C370.068 4518.24 372.148 4518.61 376 4518.99Z" fill="white"/>
<path d="M653 4666.99C649.469 4667.35 647.441 4667.68 646.195 4668.76C644.732 4670.03 644.385 4672.35 644 4677C643.602 4672.18 643.243 4669.87 641.638 4668.63C640.392 4667.66 638.377 4667.35 635 4667.01C638.518 4666.65 640.559 4666.32 641.792 4665.25C643.268 4663.97 643.615 4661.66 644 4657C644.359 4661.29 644.68 4663.59 645.874 4664.91C647.068 4666.24 649.148 4666.61 653 4666.99Z" fill="white" fill-opacity="0.7"/>
<path d="M916 4609.99C912.469 4610.35 910.441 4610.68 909.195 4611.76C907.732 4613.03 907.385 4615.35 907 4620C906.602 4615.18 906.243 4612.87 904.638 4611.63C903.392 4610.66 901.377 4610.35 898 4610.01C901.518 4609.65 903.559 4609.32 904.792 4608.25C906.268 4606.97 906.615 4604.66 907 4600C907.359 4604.29 907.68 4606.59 908.874 4607.91C910.068 4609.24 912.148 4609.61 916 4609.99Z" fill="white" fill-opacity="0.8"/>
<path d="M880 4410.99C876.469 4411.35 874.441 4411.68 873.195 4412.76C871.732 4414.03 871.385 4416.35 871 4421C870.602 4416.18 870.243 4413.87 868.638 4412.63C867.392 4411.66 865.377 4411.35 862 4411.01C865.518 4410.65 867.559 4410.32 868.792 4409.25C870.268 4407.97 870.615 4405.66 871 4401C871.359 4405.29 871.68 4407.59 872.874 4408.91C874.068 4410.24 876.148 4410.61 880 4410.99Z" fill="white"/>
<path d="M552 4589.99C548.469 4590.35 546.441 4590.68 545.195 4591.76C543.732 4593.03 543.385 4595.35 543 4600C542.602 4595.18 542.243 4592.87 540.638 4591.63C539.392 4590.66 537.377 4590.35 534 4590.01C537.518 4589.65 539.559 4589.32 540.792 4588.25C542.268 4586.97 542.615 4584.66 543 4580C543.359 4584.29 543.68 4586.59 544.874 4587.91C546.068 4589.24 548.148 4589.61 552 4589.99Z" fill="white" fill-opacity="0.9"/>
<path d="M68.9573 4444.99C62.8851 4445.63 59.3963 4446.22 57.2545 4448.17C54.7372 4450.45 54.1411 4454.64 53.4786 4463C52.7941 4454.33 52.1759 4450.17 49.4158 4447.94C47.2739 4446.19 43.8072 4445.63 38 4445.01C44.0501 4444.37 47.561 4443.78 49.6807 4441.86C52.22 4439.55 52.8162 4435.39 53.4786 4427C54.0969 4434.72 54.6489 4438.85 56.7024 4441.24C58.7559 4443.63 62.333 4444.29 68.9573 4444.99Z" fill="white"/>
<path d="M93 4543.99C86.9194 4544.63 83.4258 4545.22 81.281 4547.17C78.7603 4549.45 78.1633 4553.64 77.5 4562C76.8146 4553.33 76.1954 4549.17 73.4315 4546.94C71.2867 4545.19 67.8153 4544.63 62 4544.01C68.0585 4543.37 71.5742 4542.78 73.6969 4540.86C76.2397 4538.55 76.8367 4534.39 77.5 4526C78.1191 4533.72 78.6719 4537.85 80.7282 4540.24C82.7846 4542.63 86.3666 4543.29 93 4543.99Z" fill="white" fill-opacity="0.7"/>
<path d="M1323 4516.49C1318.68 4516.94 1316.21 4517.35 1314.68 4518.7C1312.89 4520.29 1312.47 4523.19 1312 4529C1311.51 4522.98 1311.07 4520.09 1309.11 4518.54C1307.59 4517.33 1305.13 4516.94 1301 4516.51C1305.3 4516.06 1307.79 4515.65 1309.3 4514.32C1311.11 4512.71 1311.53 4509.83 1312 4504C1312.44 4509.36 1312.83 4512.23 1314.29 4513.89C1315.75 4515.55 1318.29 4516.01 1323 4516.49Z" fill="white"/>
<path d="M992 4633.99C985.919 4634.63 982.426 4635.22 980.281 4637.17C977.76 4639.45 977.163 4643.64 976.5 4652C975.815 4643.33 975.195 4639.17 972.432 4636.94C970.287 4635.19 966.815 4634.63 961 4634.01C967.058 4633.37 970.574 4632.78 972.697 4630.86C975.24 4628.55 975.837 4624.39 976.5 4616C977.119 4623.72 977.672 4627.85 979.728 4630.24C981.785 4632.63 985.367 4633.29 992 4633.99Z" fill="white" fill-opacity="0.5"/>
<path d="M471 4712.19C467.469 4712.63 465.441 4713.03 464.195 4714.35C462.732 4715.9 462.385 4718.73 462 4724.4C461.602 4718.52 461.243 4715.7 459.638 4714.19C458.392 4713.01 456.377 4712.63 453 4712.21C456.518 4711.77 458.559 4711.37 459.792 4710.07C461.268 4708.5 461.615 4705.69 462 4700C462.359 4705.23 462.68 4708.03 463.874 4709.65C465.068 4711.27 467.148 4711.72 471 4712.19Z" fill="white" fill-opacity="0.5"/>
<path d="M616 4418.99C612.469 4419.35 610.441 4419.68 609.195 4420.76C607.732 4422.03 607.385 4424.35 607 4429C606.602 4424.18 606.243 4421.87 604.638 4420.63C603.392 4419.66 601.377 4419.35 598 4419.01C601.518 4418.65 603.559 4418.32 604.792 4417.25C606.268 4415.97 606.615 4413.66 607 4409C607.359 4413.29 607.68 4415.59 608.874 4416.91C610.068 4418.24 612.148 4418.61 616 4418.99Z" fill="white"/>
<path d="M736 4561.99C729.919 4562.63 726.426 4563.22 724.281 4565.17C721.76 4567.45 721.163 4571.64 720.5 4580C719.815 4571.33 719.195 4567.17 716.432 4564.94C714.287 4563.19 710.815 4562.63 705 4562.01C711.058 4561.37 714.574 4560.78 716.697 4558.86C719.24 4556.55 719.837 4552.39 720.5 4544C721.119 4551.72 721.672 4555.85 723.728 4558.24C725.785 4560.63 729.367 4561.29 736 4561.99Z" fill="white"/>
<path d="M1245.02 193.45C1240.14 193.975 1237.33 194.458 1235.61 196.053C1233.58 197.922 1233.1 201.344 1232.57 208.188C1232.02 201.092 1231.52 197.691 1229.3 195.864C1227.57 194.437 1224.78 193.975 1220.11 193.471C1224.98 192.946 1227.8 192.463 1229.51 190.889C1231.55 188.999 1232.03 185.598 1232.57 178.732C1233.06 185.052 1233.51 188.432 1235.16 190.385C1236.81 192.337 1239.69 192.883 1245.02 193.45Z" fill="white" fill-opacity="0.7"/>
<path d="M1245.02 193.45C1240.14 193.975 1237.33 194.458 1235.61 196.053C1233.58 197.922 1233.1 201.344 1232.57 208.188C1232.02 201.092 1231.52 197.691 1229.3 195.864C1227.57 194.437 1224.78 193.975 1220.11 193.471C1224.98 192.946 1227.8 192.463 1229.51 190.889C1231.55 188.999 1232.03 185.598 1232.57 178.732C1233.06 185.052 1233.51 188.432 1235.16 190.385C1236.81 192.337 1239.69 192.883 1245.02 193.45Z" fill="white" fill-opacity="0.7"/>
<path d="M136.532 218.572C131.646 219.21 128.838 219.798 127.114 221.739C125.088 224.012 124.609 228.174 124.075 236.5C123.525 227.868 123.027 223.731 120.806 221.509C119.082 219.772 116.292 219.21 111.618 218.597C116.487 217.959 119.313 217.371 121.019 215.456C123.063 213.158 123.542 209.02 124.075 200.669C124.573 208.356 125.017 212.468 126.67 214.843C128.323 217.218 131.201 217.882 136.532 218.572Z" fill="white" fill-opacity="0.7"/>
<path d="M136.532 218.572C131.646 219.21 128.838 219.798 127.114 221.739C125.088 224.012 124.609 228.174 124.075 236.5C123.525 227.868 123.027 223.731 120.806 221.509C119.082 219.772 116.292 219.21 111.618 218.597C116.487 217.959 119.313 217.371 121.019 215.456C123.063 213.158 123.542 209.02 124.075 200.669C124.573 208.356 125.017 212.468 126.67 214.843C128.323 217.218 131.201 217.882 136.532 218.572Z" fill="white" fill-opacity="0.7"/>
<path d="M463.799 470.319C458.912 470.957 456.104 471.545 454.38 473.486C452.354 475.759 451.875 479.922 451.342 488.247C450.791 479.615 450.293 475.478 448.072 473.256C446.348 471.519 443.558 470.957 438.885 470.344C443.754 469.706 446.579 469.119 448.285 467.203C450.329 464.905 450.808 460.767 451.342 452.416C451.839 460.103 452.283 464.215 453.936 466.59C455.589 468.965 458.467 469.629 463.799 470.319Z" fill="white" fill-opacity="0.7"/>
<path d="M463.799 470.319C458.912 470.957 456.104 471.545 454.38 473.486C452.354 475.759 451.875 479.922 451.342 488.247C450.791 479.615 450.293 475.478 448.072 473.256C446.348 471.519 443.558 470.957 438.885 470.344C443.754 469.706 446.579 469.119 448.285 467.203C450.329 464.905 450.808 460.767 451.342 452.416C451.839 460.103 452.283 464.215 453.936 466.59C455.589 468.965 458.467 469.629 463.799 470.319Z" fill="white" fill-opacity="0.7"/>
<path d="M994.236 551.307C989.349 551.946 986.542 552.533 984.818 554.474C982.792 556.747 982.312 560.91 981.779 569.236C981.228 560.603 980.731 556.466 978.51 554.244C976.786 552.507 973.996 551.946 969.322 551.333C974.191 550.694 977.017 550.107 978.723 548.191C980.766 545.893 981.246 541.756 981.779 533.404C982.277 541.092 982.721 545.203 984.374 547.578C986.026 549.954 988.905 550.618 994.236 551.307Z" fill="white" fill-opacity="0.7"/>
<path d="M994.236 551.307C989.349 551.946 986.542 552.533 984.818 554.474C982.792 556.747 982.312 560.91 981.779 569.236C981.228 560.603 980.731 556.466 978.51 554.244C976.786 552.507 973.996 551.946 969.322 551.333C974.191 550.694 977.017 550.107 978.723 548.191C980.766 545.893 981.246 541.756 981.779 533.404C982.277 541.092 982.721 545.203 984.374 547.578C986.026 549.954 988.905 550.618 994.236 551.307Z" fill="white" fill-opacity="0.7"/>
<path d="M1325.43 165.214C1323.08 165.427 1321.74 165.622 1320.91 166.269C1319.94 167.027 1319.71 168.415 1319.45 171.19C1319.19 168.312 1318.95 166.933 1317.88 166.193C1317.05 165.614 1315.71 165.427 1313.47 165.222C1315.81 165.009 1317.16 164.814 1317.98 164.175C1318.96 163.409 1319.19 162.03 1319.45 159.246C1319.69 161.809 1319.9 163.179 1320.7 163.971C1321.49 164.763 1322.87 164.984 1325.43 165.214Z" fill="white" fill-opacity="0.6"/>
<path d="M1325.43 165.214C1323.08 165.427 1321.74 165.622 1320.91 166.269C1319.94 167.027 1319.71 168.415 1319.45 171.19C1319.19 168.312 1318.95 166.933 1317.88 166.193C1317.05 165.614 1315.71 165.427 1313.47 165.222C1315.81 165.009 1317.16 164.814 1317.98 164.175C1318.96 163.409 1319.19 162.03 1319.45 159.246C1319.69 161.809 1319.9 163.179 1320.7 163.971C1321.49 164.763 1322.87 164.984 1325.43 165.214Z" fill="white" fill-opacity="0.6"/>
<path d="M432.511 172.588C429.383 172.834 427.586 173.061 426.483 173.809C425.187 174.684 424.88 176.289 424.538 179.497C424.186 176.171 423.867 174.576 422.446 173.72C421.343 173.051 419.557 172.834 416.566 172.598C419.682 172.352 421.49 172.126 422.582 171.388C423.89 170.502 424.197 168.908 424.538 165.689C424.857 168.652 425.141 170.236 426.199 171.151C427.257 172.067 429.099 172.323 432.511 172.588Z" fill="white" fill-opacity="0.6"/>
<path d="M432.511 172.588C429.383 172.834 427.586 173.061 426.483 173.809C425.187 174.684 424.88 176.289 424.538 179.497C424.186 176.171 423.867 174.576 422.446 173.72C421.343 173.051 419.557 172.834 416.566 172.598C419.682 172.352 421.49 172.126 422.582 171.388C423.89 170.502 424.197 168.908 424.538 165.689C424.857 168.652 425.141 170.236 426.199 171.151C427.257 172.067 429.099 172.323 432.511 172.588Z" fill="white" fill-opacity="0.6"/>
<path d="M53.8178 397.191C50.6902 397.437 48.8933 397.663 47.7901 398.411C46.4936 399.287 46.1865 400.891 45.8453 404.099C45.4927 400.773 45.1743 399.179 43.7527 398.323C42.6495 397.653 40.8639 397.437 37.8728 397.201C40.989 396.955 42.7973 396.728 43.8891 395.99C45.197 395.104 45.5041 393.51 45.8453 390.292C46.1637 393.254 46.4481 394.839 47.5058 395.754C48.5634 396.669 50.4059 396.925 53.8178 397.191Z" fill="white" fill-opacity="0.6"/>
<path d="M53.8178 397.191C50.6902 397.437 48.8933 397.663 47.7901 398.411C46.4936 399.287 46.1865 400.891 45.8453 404.099C45.4927 400.773 45.1743 399.179 43.7527 398.323C42.6495 397.653 40.8639 397.437 37.8728 397.201C40.989 396.955 42.7973 396.728 43.8891 395.99C45.197 395.104 45.5041 393.51 45.8453 390.292C46.1637 393.254 46.4481 394.839 47.5058 395.754C48.5634 396.669 50.4059 396.925 53.8178 397.191Z" fill="white" fill-opacity="0.6"/>
<path d="M161.248 524.478C158.12 524.724 156.323 524.95 155.22 525.698C153.924 526.574 153.617 528.178 153.275 531.387C152.923 528.06 152.604 526.466 151.183 525.61C150.08 524.94 148.294 524.724 145.303 524.488C148.419 524.242 150.227 524.015 151.319 523.277C152.627 522.392 152.934 520.797 153.275 517.579C153.594 520.541 153.878 522.126 154.936 523.041C155.994 523.956 157.836 524.212 161.248 524.478Z" fill="white" fill-opacity="0.6"/>
<path d="M161.248 524.478C158.12 524.724 156.323 524.95 155.22 525.698C153.924 526.574 153.617 528.178 153.275 531.387C152.923 528.06 152.604 526.466 151.183 525.61C150.08 524.94 148.294 524.724 145.303 524.488C148.419 524.242 150.227 524.015 151.319 523.277C152.627 522.392 152.934 520.797 153.275 517.579C153.594 520.541 153.878 522.126 154.936 523.041C155.994 523.956 157.836 524.212 161.248 524.478Z" fill="white" fill-opacity="0.6"/>
<path d="M1353.49 603.604C1350.36 603.85 1348.56 604.076 1347.46 604.824C1346.16 605.7 1345.86 607.304 1345.52 610.513C1345.16 607.186 1344.84 605.592 1343.42 604.736C1342.32 604.066 1340.53 603.85 1337.54 603.614C1340.66 603.368 1342.47 603.141 1343.56 602.403C1344.87 601.518 1345.17 599.923 1345.52 596.705C1345.83 599.667 1346.12 601.252 1347.18 602.167C1348.23 603.082 1350.08 603.338 1353.49 603.604Z" fill="white" fill-opacity="0.6"/>
<path d="M1353.49 603.604C1350.36 603.85 1348.56 604.076 1347.46 604.824C1346.16 605.7 1345.86 607.304 1345.52 610.513C1345.16 607.186 1344.84 605.592 1343.42 604.736C1342.32 604.066 1340.53 603.85 1337.54 603.614C1340.66 603.368 1342.47 603.141 1343.56 602.403C1344.87 601.518 1345.17 599.923 1345.52 596.705C1345.83 599.667 1346.12 601.252 1347.18 602.167C1348.23 603.082 1350.08 603.338 1353.49 603.604Z" fill="white" fill-opacity="0.6"/>
<path d="M353.358 293.439C344.757 294.209 339.816 294.919 336.782 297.262C333.217 300.007 332.372 305.033 331.434 315.086C330.464 304.663 329.589 299.668 325.679 296.985C322.645 294.888 317.735 294.209 309.51 293.469C318.079 292.699 323.052 291.989 326.054 289.677C329.651 286.901 330.496 281.906 331.434 271.822C332.31 281.104 333.091 286.069 336 288.936C338.909 291.804 343.975 292.606 353.358 293.439Z" fill="white"/>
<path d="M1045.02 264.973C1035.83 265.824 1030.56 266.607 1027.31 269.195C1023.51 272.226 1022.6 277.777 1021.6 288.877C1020.57 277.368 1019.63 271.851 1015.45 268.889C1012.21 266.573 1006.97 265.824 998.183 265.007C1007.34 264.156 1012.65 263.373 1015.86 260.819C1019.7 257.754 1020.6 252.238 1021.6 241.103C1022.54 251.352 1023.37 256.835 1026.48 260.001C1029.59 263.168 1035 264.054 1045.02 264.973Z" fill="white"/>
<path d="M1269.92 467.538C1262.11 468.244 1257.61 468.893 1254.86 471.037C1251.61 473.548 1250.85 478.146 1249.99 487.343C1249.11 477.808 1248.32 473.237 1244.76 470.783C1242 468.864 1237.54 468.244 1230.06 467.567C1237.85 466.861 1242.37 466.212 1245.1 464.096C1248.37 461.557 1249.14 456.987 1249.99 447.762C1250.79 456.254 1251.5 460.796 1254.14 463.419C1256.79 466.043 1261.4 466.777 1269.92 467.538Z" fill="white"/>
<path d="M1379.85 376.288C1371.25 377.059 1366.31 377.768 1363.27 380.112C1359.71 382.856 1358.86 387.883 1357.92 397.935C1356.95 387.513 1356.08 382.517 1352.17 379.834C1349.14 377.738 1344.23 377.059 1336 376.319C1344.57 375.548 1349.54 374.839 1352.54 372.526C1356.14 369.751 1356.99 364.755 1357.92 354.672C1358.8 363.954 1359.58 368.918 1362.49 371.786C1365.4 374.654 1370.47 375.456 1379.85 376.288Z" fill="white"/>
<path d="M1266.9 165.179C1271.61 181.019 1267.75 198.65 1256.62 217.011C1245.48 235.372 1227.11 254.414 1202.89 273.027C1154.46 310.252 1082.77 345.695 999.297 370.512C915.823 395.33 836.414 404.809 775.514 400.088C745.063 397.728 719.267 391.819 699.911 382.523C680.554 373.226 667.687 360.57 662.978 344.73C658.269 328.891 662.131 311.26 673.265 292.899C684.399 274.538 702.777 255.496 726.992 236.882C775.421 199.658 847.111 164.215 930.585 139.397C1014.06 114.58 1093.47 105.101 1154.37 109.821C1184.82 112.182 1210.61 118.091 1229.97 127.387C1249.33 136.683 1262.2 149.34 1266.9 165.179Z" stroke="url(#paint3_linear_928_228)"/>
<defs>
<linearGradient id="paint0_linear_928_228" x1="290.769" y1="1775.91" x2="1117.74" y2="1639.61" gradientUnits="userSpaceOnUse">
<stop stop-color="#484848"/>
<stop offset="0.491388" stop-color="#484848" stop-opacity="0.36"/>
<stop offset="1" stop-color="#484848"/>
</linearGradient>
<linearGradient id="paint1_linear_928_228" x1="-129.657" y1="1881.7" x2="1314.96" y2="1629.28" gradientUnits="userSpaceOnUse">
<stop stop-color="#484848"/>
<stop offset="0.491388" stop-color="#484848" stop-opacity="0.36"/>
<stop offset="1" stop-color="#484848"/>
</linearGradient>
<linearGradient id="paint2_linear_928_228" x1="54.8568" y1="2844.8" x2="1354.55" y2="2427.64" gradientUnits="userSpaceOnUse">
<stop stop-color="#484848"/>
<stop offset="0.491388" stop-color="#FDE4E4" stop-opacity="0.36"/>
<stop offset="1" stop-color="#484848"/>
</linearGradient>
<linearGradient id="paint3_linear_928_228" x1="676.047" y1="326.605" x2="1243.18" y2="255.296" gradientUnits="userSpaceOnUse">
<stop stop-color="#484848"/>
<stop offset="0.491388" stop-color="#484848" stop-opacity="0.36"/>
<stop offset="1" stop-color="#484848"/>
</linearGradient>
<clipPath id="clip0_928_228">
<rect width="1448" height="1043" fill="white" transform="translate(1 1200)"/>
</clipPath>
<clipPath id="clip1_928_228">
<rect width="1449" height="1225" fill="white" transform="translate(0 1992)"/>
</clipPath>
</defs>
</svg>
